<?xml version="1.0" standalone="no" ?>
<!DOCTYPE svg PUBLIC "-//W3C//DTD SVG 1.1//EN" "http://www.w3.org/Graphics/SVG/1.1/DTD/svg11.dtd">
<svg width="511px" height="454px" viewBox="-48.698182 -38.420067 97.260038 86.760225" xmlns="http://www.w3.org/2000/svg" version="1.1" >
<g transform="scale(1 -1) translate(0 -9.920091)" >
	<polygon points="-36.0883,-7.54524 -41.3996,-10.8992 -42.3583,-21.9762 -48.6982,-38.4201 41.6416,-37.633 39.3341,-3.0995 48.5619,48.3402 6.02932,36.8127 8.11927,15.1017 -2.98722,31.1052 -0.817857,42.3686 -8.74098,46.1829 -21.7695,17.4032 -11.7715,40.0774 -25.9785,41.0849 -32.3518,47.8067 -33.7105,5.05481 -36.318,-2.90722 17.0732,4.44339 17.598,4.12694 7.06644,-9.56509 0.590474,-6.134 -9.4107,-8.09906 -19.8125,-11.9359 -24.0575,-8.87829 " fill="none" opacity="1" stroke-width="0.1" stroke="rgb(0,0,0)" />
	<line x1="-41.3996" y1="-10.8992" x2="-42.3583" y2="-21.9762" stroke-width="0.5" stroke="rgb(255,0,0)" />
	<line x1="-42.3583" y1="-21.9762" x2="-43.7778" y2="-38.3772" stroke-width="0.5" stroke="rgb(255,0,0)" />
	<line x1="-43.7778" y1="-38.3772" x2="41.6416" y2="-37.633" stroke-width="0.5" stroke="rgb(255,0,0)" />
	<line x1="41.6416" y1="-37.633" x2="40.1168" y2="-14.814" stroke-width="0.5" stroke="rgb(255,0,0)" />
	<line x1="40.1168" y1="-14.814" x2="-19.8125" y2="-11.9359" stroke-width="0.5" stroke="rgb(255,0,0)" />
	<line x1="-19.8125" y1="-11.9359" x2="-24.0575" y2="-8.87829" stroke-width="0.5" stroke="rgb(255,0,0)" />
	<line x1="-24.0575" y1="-8.87829" x2="-36.0883" y2="-7.54524" stroke-width="0.5" stroke="rgb(255,0,0)" />
	<line x1="-41.3996" y1="-10.8992" x2="-36.0883" y2="-7.54524" stroke-width="0.5" stroke="rgb(255,0,0)" />
</g>

</svg>
