<?xml version="1.0" standalone="no" ?>
<!DOCTYPE svg PUBLIC "-//W3C//DTD SVG 1.1//EN" "http://www.w3.org/Graphics/SVG/1.1/DTD/svg11.dtd">
<svg width="511px" height="454px" viewBox="-48.698182 -38.420067 97.260038 86.760225" xmlns="http://www.w3.org/2000/svg" version="1.1" >
<g transform="scale(1 -1) translate(0 -9.920091)" >
	<polygon points="-36.0883,-7.54524 -41.3996,-10.8992 -42.3583,-21.9762 -48.6982,-38.4201 41.6416,-37.633 39.3341,-3.0995 48.5619,48.3402 6.02932,36.8127 8.11927,15.1017 -2.98722,31.1052 -0.817857,42.3686 -8.74098,46.1829 -21.7695,17.4032 -11.7715,40.0774 -25.9785,41.0849 -32.3518,47.8067 -33.7105,5.05481 -36.318,-2.90722 17.0732,4.44339 17.598,4.12694 7.06644,-9.56509 0.590474,-6.134 -9.4107,-8.09906 -19.8125,-11.9359 -24.0575,-8.87829 " fill="none" opacity="1" stroke-width="0.1" stroke="rgb(0,0,0)" />
	<line x1="-32.3518" y1="47.8067" x2="-33.7105" y2="5.05481" stroke-width="0.5" stroke="rgb(255,0,0)" />
	<line x1="-33.7105" y1="5.05481" x2="-33.9532" y2="-2.58165" stroke-width="0.5" stroke="rgb(255,0,0)" />
	<line x1="-33.9532" y1="-2.58165" x2="-15.6888" y2="-0.0671061" stroke-width="0.5" stroke="rgb(255,0,0)" />
	<line x1="-15.6888" y1="-0.0671061" x2="-21.7695" y2="17.4032" stroke-width="0.5" stroke="rgb(255,0,0)" />
	<line x1="-21.7695" y1="17.4032" x2="-15.978" y2="30.5375" stroke-width="0.5" stroke="rgb(255,0,0)" />
	<line x1="-15.978" y1="30.5375" x2="-25.9785" y2="41.0849" stroke-width="0.5" stroke="rgb(255,0,0)" />
	<line x1="-32.3518" y1="47.8067" x2="-25.9785" y2="41.0849" stroke-width="0.5" stroke="rgb(255,0,0)" />
</g>

</svg>
