<?xml version="1.0" standalone="no" ?>
<!DOCTYPE svg PUBLIC "-//W3C//DTD SVG 1.1//EN" "http://www.w3.org/Graphics/SVG/1.1/DTD/svg11.dtd">
<svg width="511px" height="454px" viewBox="-48.698182 -38.420067 97.260038 86.760225" xmlns="http://www.w3.org/2000/svg" version="1.1" >
<g transform="scale(1 -1) translate(0 -9.920091)" >
	<polygon points="-36.0883,-7.54524 -41.3996,-10.8992 -42.3583,-21.9762 -48.6982,-38.4201 41.6416,-37.633 39.3341,-3.0995 48.5619,48.3402 6.02932,36.8127 8.11927,15.1017 -2.98722,31.1052 -0.817857,42.3686 -8.74098,46.1829 -21.7695,17.4032 -11.7715,40.0774 -25.9785,41.0849 -32.3518,47.8067 -33.7105,5.05481 -36.318,-2.90722 17.0732,4.44339 17.598,4.12694 7.06644,-9.56509 0.590474,-6.134 -9.4107,-8.09906 -19.8125,-11.9359 -24.0575,-8.87829 " fill="none" opacity="1" stroke-width="0.1" stroke="rgb(0,0,0)" />
	<line x1="17.0732" y1="4.44339" x2="17.598" y2="4.12694" stroke-width="0.5" stroke="rgb(255,0,0)" />
	<line x1="17.598" y1="4.12694" x2="39.7434" y2="-9.22519" stroke-width="0.5" stroke="rgb(255,0,0)" />
	<line x1="39.7434" y1="-9.22519" x2="39.3341" y2="-3.0995" stroke-width="0.5" stroke="rgb(255,0,0)" />
	<line x1="39.3341" y1="-3.0995" x2="48.5619" y2="48.3402" stroke-width="0.5" stroke="rgb(255,0,0)" />
	<line x1="48.5619" y1="48.3402" x2="6.02932" y2="36.8127" stroke-width="0.5" stroke="rgb(255,0,0)" />
	<line x1="6.02932" y1="36.8127" x2="8.11927" y2="15.1017" stroke-width="0.5" stroke="rgb(255,0,0)" />
	<line x1="8.11927" y1="15.1017" x2="-11.9803" y2="39.0274" stroke-width="0.5" stroke="rgb(255,0,0)" />
	<line x1="-11.9803" y1="39.0274" x2="-21.7695" y2="17.4032" stroke-width="0.5" stroke="rgb(255,0,0)" />
	<line x1="-21.7695" y1="17.4032" x2="-33.1969" y2="21.2159" stroke-width="0.5" stroke="rgb(255,0,0)" />
	<line x1="-33.1969" y1="21.2159" x2="-33.7105" y2="5.05481" stroke-width="0.5" stroke="rgb(255,0,0)" />
	<line x1="-33.7105" y1="5.05481" x2="-36.318" y2="-2.90722" stroke-width="0.5" stroke="rgb(255,0,0)" />
	<line x1="17.0732" y1="4.44339" x2="-36.318" y2="-2.90722" stroke-width="0.5" stroke="rgb(255,0,0)" />
</g>

</svg>
