<?xml version="1.0" standalone="no" ?>
<!DOCTYPE svg PUBLIC "-//W3C//DTD SVG 1.1//EN" "http://www.w3.org/Graphics/SVG/1.1/DTD/svg11.dtd">
<svg width="511px" height="454px" viewBox="-48.698182 -38.420067 97.260038 86.760225" xmlns="http://www.w3.org/2000/svg" version="1.1" >
<g transform="scale(1 -1) translate(0 -9.920091)" >
	<polygon points="-36.0883,-7.54524 -41.3996,-10.8992 -42.3583,-21.9762 -48.6982,-38.4201 41.6416,-37.633 39.3341,-3.0995 48.5619,48.3402 6.02932,36.8127 8.11927,15.1017 -2.98722,31.1052 -0.817857,42.3686 -8.74098,46.1829 -21.7695,17.4032 -11.7715,40.0774 -25.9785,41.0849 -32.3518,47.8067 -33.7105,5.05481 -36.318,-2.90722 17.0732,4.44339 17.598,4.12694 7.06644,-9.56509 0.590474,-6.134 -9.4107,-8.09906 -19.8125,-11.9359 -24.0575,-8.87829 " fill="none" opacity="1" stroke-width="0.1" stroke="rgb(0,0,0)" />
	<line x1="17.598" y1="4.12694" x2="-9.42369" y2="-38.0779" stroke-width="0.5" stroke="rgb(255,0,0)" />
	<line x1="17.598" y1="4.12694" x2="-4.53043" y2="-38.0353" stroke-width="0.5" stroke="rgb(255,0,0)" />
	<line x1="17.598" y1="4.12694" x2="-0.0702562" y2="-37.9964" stroke-width="0.5" stroke="rgb(255,0,0)" />
	<line x1="17.598" y1="4.12694" x2="4.07064" y2="-37.9603" stroke-width="0.5" stroke="rgb(255,0,0)" />
	<line x1="17.598" y1="4.12694" x2="7.98128" y2="-37.9263" stroke-width="0.5" stroke="rgb(255,0,0)" />
	<line x1="17.598" y1="4.12694" x2="11.7345" y2="-37.8936" stroke-width="0.5" stroke="rgb(255,0,0)" />
	<line x1="17.598" y1="4.12694" x2="15.3926" y2="-37.8617" stroke-width="0.5" stroke="rgb(255,0,0)" />
	<line x1="17.598" y1="4.12694" x2="19.0122" y2="-37.8302" stroke-width="0.5" stroke="rgb(255,0,0)" />
	<line x1="17.598" y1="4.12694" x2="22.6475" y2="-37.7985" stroke-width="0.5" stroke="rgb(255,0,0)" />
	<line x1="17.598" y1="4.12694" x2="26.3536" y2="-37.7662" stroke-width="0.5" stroke="rgb(255,0,0)" />
	<line x1="17.598" y1="4.12694" x2="30.1899" y2="-37.7328" stroke-width="0.5" stroke="rgb(255,0,0)" />
	<line x1="17.598" y1="4.12694" x2="34.2243" y2="-37.6976" stroke-width="0.5" stroke="rgb(255,0,0)" />
	<line x1="17.598" y1="4.12694" x2="38.5381" y2="-37.66" stroke-width="0.5" stroke="rgb(255,0,0)" />
	<line x1="17.598" y1="4.12694" x2="41.4462" y2="-34.7086" stroke-width="0.5" stroke="rgb(255,0,0)" />
	<line x1="17.598" y1="4.12694" x2="40.9617" y2="-27.4583" stroke-width="0.5" stroke="rgb(255,0,0)" />
	<line x1="17.598" y1="4.12694" x2="40.5923" y2="-21.9297" stroke-width="0.5" stroke="rgb(255,0,0)" />
	<line x1="17.598" y1="4.12694" x2="40.2974" y2="-17.5161" stroke-width="0.5" stroke="rgb(255,0,0)" />
	<line x1="17.598" y1="4.12694" x2="40.0532" y2="-13.8619" stroke-width="0.5" stroke="rgb(255,0,0)" />
	<line x1="17.598" y1="4.12694" x2="39.8449" y2="-10.7441" stroke-width="0.5" stroke="rgb(255,0,0)" />
	<line x1="17.598" y1="4.12694" x2="39.6625" y2="-8.01512" stroke-width="0.5" stroke="rgb(255,0,0)" />
	<line x1="17.598" y1="4.12694" x2="39.4993" y2="-5.57232" stroke-width="0.5" stroke="rgb(255,0,0)" />
	<line x1="17.598" y1="4.12694" x2="39.3502" y2="-3.34157" stroke-width="0.5" stroke="rgb(255,0,0)" />
	<line x1="17.598" y1="4.12694" x2="39.6435" y2="-1.37472" stroke-width="0.5" stroke="rgb(255,0,0)" />
	<line x1="17.598" y1="4.12694" x2="39.9888" y2="0.550387" stroke-width="0.5" stroke="rgb(255,0,0)" />
	<line x1="17.598" y1="4.12694" x2="40.3353" y2="2.48186" stroke-width="0.5" stroke="rgb(255,0,0)" />
	<line x1="17.598" y1="4.12694" x2="40.6882" y2="4.44892" stroke-width="0.5" stroke="rgb(255,0,0)" />
	<line x1="17.598" y1="4.12694" x2="41.0531" y2="6.48296" stroke-width="0.5" stroke="rgb(255,0,0)" />
	<line x1="17.598" y1="4.12694" x2="41.4364" y2="8.61968" stroke-width="0.5" stroke="rgb(255,0,0)" />
	<line x1="17.598" y1="4.12694" x2="41.8458" y2="10.9017" stroke-width="0.5" stroke="rgb(255,0,0)" />
	<line x1="17.598" y1="4.12694" x2="42.2908" y2="13.3825" stroke-width="0.5" stroke="rgb(255,0,0)" />
	<line x1="17.598" y1="4.12694" x2="42.784" y2="16.1317" stroke-width="0.5" stroke="rgb(255,0,0)" />
	<line x1="17.598" y1="4.12694" x2="43.3423" y2="19.2441" stroke-width="0.5" stroke="rgb(255,0,0)" />
	<line x1="17.598" y1="4.12694" x2="43.9899" y2="22.8542" stroke-width="0.5" stroke="rgb(255,0,0)" />
	<line x1="17.598" y1="4.12694" x2="44.7625" y2="27.1608" stroke-width="0.5" stroke="rgb(255,0,0)" />
	<line x1="17.598" y1="4.12694" x2="45.7157" y2="32.4743" stroke-width="0.5" stroke="rgb(255,0,0)" />
	<line x1="17.598" y1="4.12694" x2="46.9418" y2="39.3092" stroke-width="0.5" stroke="rgb(255,0,0)" />
	<line x1="17.598" y1="4.12694" x2="48.4031" y2="48.2971" stroke-width="0.5" stroke="rgb(255,0,0)" />
	<line x1="17.598" y1="4.12694" x2="42.0638" y2="46.579" stroke-width="0.5" stroke="rgb(255,0,0)" />
	<line x1="17.598" y1="4.12694" x2="36.7365" y2="45.1351" stroke-width="0.5" stroke="rgb(255,0,0)" />
	<line x1="17.598" y1="4.12694" x2="32.1336" y2="43.8876" stroke-width="0.5" stroke="rgb(255,0,0)" />
	<line x1="17.598" y1="4.12694" x2="28.0603" y2="42.7837" stroke-width="0.5" stroke="rgb(255,0,0)" />
	<line x1="17.598" y1="4.12694" x2="24.3787" y2="41.7858" stroke-width="0.5" stroke="rgb(255,0,0)" />
	<line x1="17.598" y1="4.12694" x2="20.9867" y2="40.8665" stroke-width="0.5" stroke="rgb(255,0,0)" />
	<line x1="17.598" y1="4.12694" x2="17.8064" y2="40.0046" stroke-width="0.5" stroke="rgb(255,0,0)" />
	<line x1="17.598" y1="4.12694" x2="14.7748" y2="39.1829" stroke-width="0.5" stroke="rgb(255,0,0)" />
	<line x1="17.598" y1="4.12694" x2="11.8392" y2="38.3873" stroke-width="0.5" stroke="rgb(255,0,0)" />
	<line x1="17.598" y1="4.12694" x2="8.95325" y2="37.6051" stroke-width="0.5" stroke="rgb(255,0,0)" />
	<line x1="17.598" y1="4.12694" x2="6.07322" y2="36.8245" stroke-width="0.5" stroke="rgb(255,0,0)" />
	<line x1="17.598" y1="4.12694" x2="6.90069" y2="27.7606" stroke-width="0.5" stroke="rgb(255,0,0)" />
	<line x1="17.598" y1="4.12694" x2="7.43099" y2="22.2517" stroke-width="0.5" stroke="rgb(255,0,0)" />
	<line x1="17.598" y1="4.12694" x2="7.78753" y2="18.5479" stroke-width="0.5" stroke="rgb(255,0,0)" />
	<line x1="17.598" y1="4.12694" x2="8.04699" y2="15.8525" stroke-width="0.5" stroke="rgb(255,0,0)" />
	<line x1="17.598" y1="4.12694" x2="-13.3317" y2="36.0422" stroke-width="0.5" stroke="rgb(255,0,0)" />
	<line x1="17.598" y1="4.12694" x2="-14.9777" y2="32.4061" stroke-width="0.5" stroke="rgb(255,0,0)" />
	<line x1="17.598" y1="4.12694" x2="-16.5411" y2="28.9525" stroke-width="0.5" stroke="rgb(255,0,0)" />
</g>

</svg>
