<?xml version="1.0" standalone="no" ?>
<!DOCTYPE svg PUBLIC "-//W3C//DTD SVG 1.1//EN" "http://www.w3.org/Graphics/SVG/1.1/DTD/svg11.dtd">
<svg width="511px" height="454px" viewBox="-48.698182 -38.420067 97.260038 86.760225" xmlns="http://www.w3.org/2000/svg" version="1.1" >
<g transform="scale(1 -1) translate(0 -9.920091)" >
	<polygon points="-36.0883,-7.54524 -41.3996,-10.8992 -42.3583,-21.9762 -48.6982,-38.4201 41.6416,-37.633 39.3341,-3.0995 48.5619,48.3402 6.02932,36.8127 8.11927,15.1017 -2.98722,31.1052 -0.817857,42.3686 -8.74098,46.1829 -21.7695,17.4032 -11.7715,40.0774 -25.9785,41.0849 -32.3518,47.8067 -33.7105,5.05481 -36.318,-2.90722 17.0732,4.44339 17.598,4.12694 7.06644,-9.56509 0.590474,-6.134 -9.4107,-8.09906 -19.8125,-11.9359 -24.0575,-8.87829 " fill="none" opacity="1" stroke-width="0.1" stroke="rgb(0,0,0)" />
	<line x1="-8.74098" y1="46.1829" x2="-25.5347" y2="-1.42264" stroke-width="0.5" stroke="rgb(255,0,0)" />
	<line x1="-8.74098" y1="46.1829" x2="-20.8928" y2="-0.783563" stroke-width="0.5" stroke="rgb(255,0,0)" />
	<line x1="-8.74098" y1="46.1829" x2="-16.5685" y2="-0.188214" stroke-width="0.5" stroke="rgb(255,0,0)" />
	<line x1="-8.74098" y1="46.1829" x2="-12.4718" y2="0.375789" stroke-width="0.5" stroke="rgb(255,0,0)" />
	<line x1="-8.74098" y1="46.1829" x2="-8.52873" y2="0.918656" stroke-width="0.5" stroke="rgb(255,0,0)" />
	<line x1="-8.74098" y1="46.1829" x2="-4.67491" y2="1.44923" stroke-width="0.5" stroke="rgb(255,0,0)" />
	<line x1="-8.74098" y1="46.1829" x2="-0.851654" y2="1.9756" stroke-width="0.5" stroke="rgb(255,0,0)" />
	<line x1="-8.74098" y1="46.1829" x2="2.99792" y2="2.50559" stroke-width="0.5" stroke="rgb(255,0,0)" />
	<line x1="-8.74098" y1="46.1829" x2="6.93229" y2="3.04725" stroke-width="0.5" stroke="rgb(255,0,0)" />
	<line x1="-8.74098" y1="46.1829" x2="-2.62263" y2="32.9981" stroke-width="0.5" stroke="rgb(255,0,0)" />
	<line x1="-8.74098" y1="46.1829" x2="-2.26087" y2="34.8764" stroke-width="0.5" stroke="rgb(255,0,0)" />
	<line x1="-8.74098" y1="46.1829" x2="-1.96494" y2="36.4129" stroke-width="0.5" stroke="rgb(255,0,0)" />
	<line x1="-8.74098" y1="46.1829" x2="-1.71501" y2="37.7106" stroke-width="0.5" stroke="rgb(255,0,0)" />
	<line x1="-8.74098" y1="46.1829" x2="-1.49815" y2="38.8365" stroke-width="0.5" stroke="rgb(255,0,0)" />
	<line x1="-8.74098" y1="46.1829" x2="-1.30554" y2="39.8366" stroke-width="0.5" stroke="rgb(255,0,0)" />
	<line x1="-8.74098" y1="46.1829" x2="-1.13089" y2="40.7433" stroke-width="0.5" stroke="rgb(255,0,0)" />
	<line x1="-8.74098" y1="46.1829" x2="-0.969538" y2="41.5811" stroke-width="0.5" stroke="rgb(255,0,0)" />
</g>

</svg>
