<?xml version="1.0" standalone="no" ?>
<!DOCTYPE svg PUBLIC "-//W3C//DTD SVG 1.1//EN" "http://www.w3.org/Graphics/SVG/1.1/DTD/svg11.dtd">
<svg width="511px" height="454px" viewBox="-48.698182 -38.420067 97.260038 86.760225" xmlns="http://www.w3.org/2000/svg" version="1.1" >
<g transform="scale(1 -1) translate(0 -9.920091)" >
	<polygon points="-36.0883,-7.54524 -41.3996,-10.8992 -42.3583,-21.9762 -48.6982,-38.4201 41.6416,-37.633 39.3341,-3.0995 48.5619,48.3402 6.02932,36.8127 8.11927,15.1017 -2.98722,31.1052 -0.817857,42.3686 -8.74098,46.1829 -21.7695,17.4032 -11.7715,40.0774 -25.9785,41.0849 -32.3518,47.8067 -33.7105,5.05481 -36.318,-2.90722 17.0732,4.44339 17.598,4.12694 7.06644,-9.56509 0.590474,-6.134 -9.4107,-8.09906 -19.8125,-11.9359 -24.0575,-8.87829 " fill="none" opacity="1" stroke-width="0.1" stroke="rgb(0,0,0)" />
	<line x1="-36.318" y1="-2.90722" x2="42.5746" y2="14.9648" stroke-width="0.5" stroke="rgb(255,0,0)" />
	<line x1="-36.318" y1="-2.90722" x2="43.9617" y2="22.6969" stroke-width="0.5" stroke="rgb(255,0,0)" />
	<line x1="-36.318" y1="-2.90722" x2="7.84912" y2="15.491" stroke-width="0.5" stroke="rgb(255,0,0)" />
	<line x1="-36.318" y1="-2.90722" x2="5.4883" y2="18.8927" stroke-width="0.5" stroke="rgb(255,0,0)" />
	<line x1="-36.318" y1="-2.90722" x2="3.17848" y2="22.221" stroke-width="0.5" stroke="rgb(255,0,0)" />
	<line x1="-36.318" y1="-2.90722" x2="0.884557" y2="25.5263" stroke-width="0.5" stroke="rgb(255,0,0)" />
	<line x1="-36.318" y1="-2.90722" x2="-1.42759" y2="28.8579" stroke-width="0.5" stroke="rgb(255,0,0)" />
	<line x1="-36.318" y1="-2.90722" x2="-2.49266" y2="33.673" stroke-width="0.5" stroke="rgb(255,0,0)" />
	<line x1="-36.318" y1="-2.90722" x2="-1.06355" y2="42.4869" stroke-width="0.5" stroke="rgb(255,0,0)" />
	<line x1="-36.318" y1="-2.90722" x2="-18.7657" y2="24.2153" stroke-width="0.5" stroke="rgb(255,0,0)" />
	<line x1="-36.318" y1="-2.90722" x2="-13.4165" y2="40.194" stroke-width="0.5" stroke="rgb(255,0,0)" />
	<line x1="-36.318" y1="-2.90722" x2="-17.8374" y2="40.5076" stroke-width="0.5" stroke="rgb(255,0,0)" />
</g>

</svg>
