<?xml version="1.0" standalone="no" ?>
<!DOCTYPE svg PUBLIC "-//W3C//DTD SVG 1.1//EN" "http://www.w3.org/Graphics/SVG/1.1/DTD/svg11.dtd">
<svg width="511px" height="454px" viewBox="-48.698182 -38.420067 97.260038 86.760225" xmlns="http://www.w3.org/2000/svg" version="1.1" >
<g transform="scale(1 -1) translate(0 -9.920091)" >
	<polygon points="-36.0883,-7.54524 -41.3996,-10.8992 -42.3583,-21.9762 -48.6982,-38.4201 41.6416,-37.633 39.3341,-3.0995 48.5619,48.3402 6.02932,36.8127 8.11927,15.1017 -2.98722,31.1052 -0.817857,42.3686 -8.74098,46.1829 -21.7695,17.4032 -11.7715,40.0774 -25.9785,41.0849 -32.3518,47.8067 -33.7105,5.05481 -36.318,-2.90722 17.0732,4.44339 17.598,4.12694 7.06644,-9.56509 0.590474,-6.134 -9.4107,-8.09906 -19.8125,-11.9359 -24.0575,-8.87829 " fill="none" opacity="1" stroke-width="0.1" stroke="rgb(0,0,0)" />
	<line x1="-19.8125" y1="-11.9359" x2="-25.1311" y2="-8.75932" stroke-width="0.5" stroke="rgb(255,0,0)" />
	<line x1="-19.8125" y1="-11.9359" x2="-26.7038" y2="-8.58507" stroke-width="0.5" stroke="rgb(255,0,0)" />
	<line x1="-19.8125" y1="-11.9359" x2="-29.2778" y2="-8.29986" stroke-width="0.5" stroke="rgb(255,0,0)" />
	<line x1="-19.8125" y1="-11.9359" x2="-34.3658" y2="-7.73609" stroke-width="0.5" stroke="rgb(255,0,0)" />
	<line x1="-19.8125" y1="-11.9359" x2="-37.504" y2="-8.43924" stroke-width="0.5" stroke="rgb(255,0,0)" />
	<line x1="-19.8125" y1="-11.9359" x2="-39.6019" y2="-9.76398" stroke-width="0.5" stroke="rgb(255,0,0)" />
	<line x1="-19.8125" y1="-11.9359" x2="-41.4454" y2="-11.4275" stroke-width="0.5" stroke="rgb(255,0,0)" />
	<line x1="-19.8125" y1="-11.9359" x2="-41.6071" y2="-13.2959" stroke-width="0.5" stroke="rgb(255,0,0)" />
	<line x1="-19.8125" y1="-11.9359" x2="-41.773" y2="-15.213" stroke-width="0.5" stroke="rgb(255,0,0)" />
	<line x1="-19.8125" y1="-11.9359" x2="-41.9459" y2="-17.2106" stroke-width="0.5" stroke="rgb(255,0,0)" />
	<line x1="-19.8125" y1="-11.9359" x2="-42.1289" y2="-19.3256" stroke-width="0.5" stroke="rgb(255,0,0)" />
	<line x1="-19.8125" y1="-11.9359" x2="-42.326" y2="-21.603" stroke-width="0.5" stroke="rgb(255,0,0)" />
	<line x1="-19.8125" y1="-11.9359" x2="-43.3425" y2="-24.5289" stroke-width="0.5" stroke="rgb(255,0,0)" />
	<line x1="-19.8125" y1="-11.9359" x2="-44.7478" y2="-28.1737" stroke-width="0.5" stroke="rgb(255,0,0)" />
	<line x1="-19.8125" y1="-11.9359" x2="-46.5329" y2="-32.8039" stroke-width="0.5" stroke="rgb(255,0,0)" />
	<line x1="-19.8125" y1="-11.9359" x2="-48.3032" y2="-38.4166" stroke-width="0.5" stroke="rgb(255,0,0)" />
	<line x1="-19.8125" y1="-11.9359" x2="-43.7687" y2="-38.3771" stroke-width="0.5" stroke="rgb(255,0,0)" />
	<line x1="-19.8125" y1="-11.9359" x2="-39.9007" y2="-38.3434" stroke-width="0.5" stroke="rgb(255,0,0)" />
	<line x1="-19.8125" y1="-11.9359" x2="-36.5159" y2="-38.3139" stroke-width="0.5" stroke="rgb(255,0,0)" />
	<line x1="-19.8125" y1="-11.9359" x2="-33.4873" y2="-38.2875" stroke-width="0.5" stroke="rgb(255,0,0)" />
	<line x1="-19.8125" y1="-11.9359" x2="-30.7228" y2="-38.2635" stroke-width="0.5" stroke="rgb(255,0,0)" />
	<line x1="-19.8125" y1="-11.9359" x2="-28.1532" y2="-38.2411" stroke-width="0.5" stroke="rgb(255,0,0)" />
	<line x1="-19.8125" y1="-11.9359" x2="-25.7241" y2="-38.2199" stroke-width="0.5" stroke="rgb(255,0,0)" />
	<line x1="-19.8125" y1="-11.9359" x2="-23.3909" y2="-38.1996" stroke-width="0.5" stroke="rgb(255,0,0)" />
	<line x1="-19.8125" y1="-11.9359" x2="-21.1152" y2="-38.1798" stroke-width="0.5" stroke="rgb(255,0,0)" />
	<line x1="-19.8125" y1="-11.9359" x2="-18.8623" y2="-38.1601" stroke-width="0.5" stroke="rgb(255,0,0)" />
	<line x1="-19.8125" y1="-11.9359" x2="-16.5987" y2="-38.1404" stroke-width="0.5" stroke="rgb(255,0,0)" />
	<line x1="-19.8125" y1="-11.9359" x2="-14.2903" y2="-38.1203" stroke-width="0.5" stroke="rgb(255,0,0)" />
	<line x1="-19.8125" y1="-11.9359" x2="-11.9004" y2="-38.0995" stroke-width="0.5" stroke="rgb(255,0,0)" />
	<line x1="-19.8125" y1="-11.9359" x2="-9.38686" y2="-38.0776" stroke-width="0.5" stroke="rgb(255,0,0)" />
	<line x1="-19.8125" y1="-11.9359" x2="-6.69941" y2="-38.0542" stroke-width="0.5" stroke="rgb(255,0,0)" />
	<line x1="-19.8125" y1="-11.9359" x2="-3.77481" y2="-38.0287" stroke-width="0.5" stroke="rgb(255,0,0)" />
	<line x1="-19.8125" y1="-11.9359" x2="-0.530351" y2="-38.0004" stroke-width="0.5" stroke="rgb(255,0,0)" />
	<line x1="-19.8125" y1="-11.9359" x2="3.14662" y2="-37.9684" stroke-width="0.5" stroke="rgb(255,0,0)" />
	<line x1="-19.8125" y1="-11.9359" x2="7.41599" y2="-37.9312" stroke-width="0.5" stroke="rgb(255,0,0)" />
	<line x1="-19.8125" y1="-11.9359" x2="12.5149" y2="-37.8868" stroke-width="0.5" stroke="rgb(255,0,0)" />
	<line x1="-19.8125" y1="-11.9359" x2="18.8138" y2="-37.8319" stroke-width="0.5" stroke="rgb(255,0,0)" />
	<line x1="-19.8125" y1="-11.9359" x2="26.9276" y2="-37.7612" stroke-width="0.5" stroke="rgb(255,0,0)" />
	<line x1="-19.8125" y1="-11.9359" x2="37.9624" y2="-37.6651" stroke-width="0.5" stroke="rgb(255,0,0)" />
	<line x1="-19.8125" y1="-11.9359" x2="41.3385" y2="-33.0971" stroke-width="0.5" stroke="rgb(255,0,0)" />
	<line x1="-19.8125" y1="-11.9359" x2="40.9497" y2="-27.2786" stroke-width="0.5" stroke="rgb(255,0,0)" />
	<line x1="-19.8125" y1="-11.9359" x2="40.5821" y2="-21.7764" stroke-width="0.5" stroke="rgb(255,0,0)" />
	<line x1="-19.8125" y1="-11.9359" x2="40.2288" y2="-16.4898" stroke-width="0.5" stroke="rgb(255,0,0)" />
	<line x1="-19.8125" y1="-11.9359" x2="39.8842" y2="-11.3321" stroke-width="0.5" stroke="rgb(255,0,0)" />
	<line x1="-19.8125" y1="-11.9359" x2="6.72197" y2="-9.38259" stroke-width="0.5" stroke="rgb(255,0,0)" />
	<line x1="-19.8125" y1="-11.9359" x2="3.46653" y2="-7.65779" stroke-width="0.5" stroke="rgb(255,0,0)" />
	<line x1="-19.8125" y1="-11.9359" x2="0.850062" y2="-6.27153" stroke-width="0.5" stroke="rgb(255,0,0)" />
</g>

</svg>
