<?xml version="1.0" standalone="no" ?>
<!DOCTYPE svg PUBLIC "-//W3C//DTD SVG 1.1//EN" "http://www.w3.org/Graphics/SVG/1.1/DTD/svg11.dtd">
<svg width="511px" height="454px" viewBox="-48.698182 -38.420067 97.260038 86.760225" xmlns="http://www.w3.org/2000/svg" version="1.1" >
<g transform="scale(1 -1) translate(0 -9.920091)" >
	<polygon points="-36.0883,-7.54524 -41.3996,-10.8992 -42.3583,-21.9762 -48.6982,-38.4201 41.6416,-37.633 39.3341,-3.0995 48.5619,48.3402 6.02932,36.8127 8.11927,15.1017 -2.98722,31.1052 -0.817857,42.3686 -8.74098,46.1829 -21.7695,17.4032 -11.7715,40.0774 -25.9785,41.0849 -32.3518,47.8067 -33.7105,5.05481 -36.318,-2.90722 17.0732,4.44339 17.598,4.12694 7.06644,-9.56509 0.590474,-6.134 -9.4107,-8.09906 -19.8125,-11.9359 -24.0575,-8.87829 " fill="none" opacity="1" stroke-width="0.1" stroke="rgb(0,0,0)" />
	<line x1="-21.7695" y1="17.4032" x2="-13.9957" y2="40.2351" stroke-width="0.5" stroke="rgb(255,0,0)" />
	<line x1="-21.7695" y1="17.4032" x2="-16.12" y2="40.3858" stroke-width="0.5" stroke="rgb(255,0,0)" />
	<line x1="-21.7695" y1="17.4032" x2="-18.1815" y2="40.532" stroke-width="0.5" stroke="rgb(255,0,0)" />
	<line x1="-21.7695" y1="17.4032" x2="-20.2131" y2="40.676" stroke-width="0.5" stroke="rgb(255,0,0)" />
	<line x1="-21.7695" y1="17.4032" x2="-22.2462" y2="40.8202" stroke-width="0.5" stroke="rgb(255,0,0)" />
	<line x1="-21.7695" y1="17.4032" x2="-24.312" y2="40.9667" stroke-width="0.5" stroke="rgb(255,0,0)" />
	<line x1="-21.7695" y1="17.4032" x2="-26.5579" y2="41.696" stroke-width="0.5" stroke="rgb(255,0,0)" />
	<line x1="-21.7695" y1="17.4032" x2="-29.7866" y2="45.1012" stroke-width="0.5" stroke="rgb(255,0,0)" />
	<line x1="-21.7695" y1="17.4032" x2="-32.4407" y2="45.0079" stroke-width="0.5" stroke="rgb(255,0,0)" />
	<line x1="-21.7695" y1="17.4032" x2="-32.6153" y2="39.5155" stroke-width="0.5" stroke="rgb(255,0,0)" />
	<line x1="-21.7695" y1="17.4032" x2="-32.7405" y2="35.576" stroke-width="0.5" stroke="rgb(255,0,0)" />
	<line x1="-21.7695" y1="17.4032" x2="-32.8359" y2="32.5725" stroke-width="0.5" stroke="rgb(255,0,0)" />
	<line x1="-21.7695" y1="17.4032" x2="-32.9122" y2="30.1745" stroke-width="0.5" stroke="rgb(255,0,0)" />
	<line x1="-21.7695" y1="17.4032" x2="-32.9753" y2="28.1882" stroke-width="0.5" stroke="rgb(255,0,0)" />
	<line x1="-21.7695" y1="17.4032" x2="-33.0292" y2="26.4924" stroke-width="0.5" stroke="rgb(255,0,0)" />
	<line x1="-21.7695" y1="17.4032" x2="-33.0764" y2="25.0067" stroke-width="0.5" stroke="rgb(255,0,0)" />
	<line x1="-21.7695" y1="17.4032" x2="-33.1187" y2="23.6753" stroke-width="0.5" stroke="rgb(255,0,0)" />
	<line x1="-21.7695" y1="17.4032" x2="-33.1574" y2="22.4579" stroke-width="0.5" stroke="rgb(255,0,0)" />
	<line x1="-21.7695" y1="17.4032" x2="-33.1934" y2="21.324" stroke-width="0.5" stroke="rgb(255,0,0)" />
	<line x1="-21.7695" y1="17.4032" x2="-33.2276" y2="20.2495" stroke-width="0.5" stroke="rgb(255,0,0)" />
	<line x1="-21.7695" y1="17.4032" x2="-33.2605" y2="19.2146" stroke-width="0.5" stroke="rgb(255,0,0)" />
	<line x1="-21.7695" y1="17.4032" x2="-33.2927" y2="18.2021" stroke-width="0.5" stroke="rgb(255,0,0)" />
	<line x1="-21.7695" y1="17.4032" x2="-33.3246" y2="17.1962" stroke-width="0.5" stroke="rgb(255,0,0)" />
	<line x1="-21.7695" y1="17.4032" x2="-33.3569" y2="16.1816" stroke-width="0.5" stroke="rgb(255,0,0)" />
	<line x1="-21.7695" y1="17.4032" x2="-33.3899" y2="15.1422" stroke-width="0.5" stroke="rgb(255,0,0)" />
	<line x1="-21.7695" y1="17.4032" x2="-33.4243" y2="14.0607" stroke-width="0.5" stroke="rgb(255,0,0)" />
	<line x1="-21.7695" y1="17.4032" x2="-33.4606" y2="12.9166" stroke-width="0.5" stroke="rgb(255,0,0)" />
	<line x1="-21.7695" y1="17.4032" x2="-33.4998" y2="11.6852" stroke-width="0.5" stroke="rgb(255,0,0)" />
	<line x1="-21.7695" y1="17.4032" x2="-33.5427" y2="10.335" stroke-width="0.5" stroke="rgb(255,0,0)" />
	<line x1="-21.7695" y1="17.4032" x2="-33.5907" y2="8.82359" stroke-width="0.5" stroke="rgb(255,0,0)" />
	<line x1="-21.7695" y1="17.4032" x2="-33.6457" y2="7.09259" stroke-width="0.5" stroke="rgb(255,0,0)" />
	<line x1="-21.7695" y1="17.4032" x2="-33.7104" y2="5.05709" stroke-width="0.5" stroke="rgb(255,0,0)" />
	<line x1="-21.7695" y1="17.4032" x2="-35.0121" y2="1.08026" stroke-width="0.5" stroke="rgb(255,0,0)" />
	<line x1="-21.7695" y1="17.4032" x2="-35.416" y2="-2.78304" stroke-width="0.5" stroke="rgb(255,0,0)" />
	<line x1="-21.7695" y1="17.4032" x2="-32.7891" y2="-2.42138" stroke-width="0.5" stroke="rgb(255,0,0)" />
	<line x1="-21.7695" y1="17.4032" x2="-30.4856" y2="-2.10425" stroke-width="0.5" stroke="rgb(255,0,0)" />
	<line x1="-21.7695" y1="17.4032" x2="-28.4198" y2="-1.81984" stroke-width="0.5" stroke="rgb(255,0,0)" />
	<line x1="-21.7695" y1="17.4032" x2="-26.5295" y2="-1.55959" stroke-width="0.5" stroke="rgb(255,0,0)" />
	<line x1="-21.7695" y1="17.4032" x2="-24.7676" y2="-1.31703" stroke-width="0.5" stroke="rgb(255,0,0)" />
	<line x1="-21.7695" y1="17.4032" x2="-23.0971" y2="-1.08704" stroke-width="0.5" stroke="rgb(255,0,0)" />
	<line x1="-21.7695" y1="17.4032" x2="-21.4871" y2="-0.86539" stroke-width="0.5" stroke="rgb(255,0,0)" />
	<line x1="-21.7695" y1="17.4032" x2="-19.9111" y2="-0.648416" stroke-width="0.5" stroke="rgb(255,0,0)" />
	<line x1="-21.7695" y1="17.4032" x2="-18.3446" y2="-0.432736" stroke-width="0.5" stroke="rgb(255,0,0)" />
	<line x1="-21.7695" y1="17.4032" x2="-16.7634" y2="-0.215052" stroke-width="0.5" stroke="rgb(255,0,0)" />
	<line x1="-21.7695" y1="17.4032" x2="-15.1428" y2="0.00805966" stroke-width="0.5" stroke="rgb(255,0,0)" />
	<line x1="-21.7695" y1="17.4032" x2="-13.4555" y2="0.240367" stroke-width="0.5" stroke="rgb(255,0,0)" />
	<line x1="-21.7695" y1="17.4032" x2="-11.6695" y2="0.486253" stroke-width="0.5" stroke="rgb(255,0,0)" />
	<line x1="-21.7695" y1="17.4032" x2="-9.74596" y2="0.751074" stroke-width="0.5" stroke="rgb(255,0,0)" />
	<line x1="-21.7695" y1="17.4032" x2="-7.63511" y2="1.04169" stroke-width="0.5" stroke="rgb(255,0,0)" />
	<line x1="-21.7695" y1="17.4032" x2="-5.27054" y2="1.36723" stroke-width="0.5" stroke="rgb(255,0,0)" />
	<line x1="-21.7695" y1="17.4032" x2="-2.5599" y2="1.74041" stroke-width="0.5" stroke="rgb(255,0,0)" />
	<line x1="-21.7695" y1="17.4032" x2="0.63093" y2="2.17971" stroke-width="0.5" stroke="rgb(255,0,0)" />
	<line x1="-21.7695" y1="17.4032" x2="4.50634" y2="2.71326" stroke-width="0.5" stroke="rgb(255,0,0)" />
	<line x1="-21.7695" y1="17.4032" x2="9.39607" y2="3.38645" stroke-width="0.5" stroke="rgb(255,0,0)" />
	<line x1="-21.7695" y1="17.4032" x2="15.8711" y2="4.27791" stroke-width="0.5" stroke="rgb(255,0,0)" />
	<line x1="-21.7695" y1="17.4032" x2="40.1929" y2="1.68811" stroke-width="0.5" stroke="rgb(255,0,0)" />
	<line x1="-21.7695" y1="17.4032" x2="41.1753" y2="7.16413" stroke-width="0.5" stroke="rgb(255,0,0)" />
	<line x1="-21.7695" y1="17.4032" x2="8.05935" y2="15.1881" stroke-width="0.5" stroke="rgb(255,0,0)" />
	<line x1="-21.7695" y1="17.4032" x2="6.26896" y2="17.7679" stroke-width="0.5" stroke="rgb(255,0,0)" />
	<line x1="-21.7695" y1="17.4032" x2="4.67792" y2="20.0604" stroke-width="0.5" stroke="rgb(255,0,0)" />
	<line x1="-21.7695" y1="17.4032" x2="3.23397" y2="22.141" stroke-width="0.5" stroke="rgb(255,0,0)" />
	<line x1="-21.7695" y1="17.4032" x2="1.89829" y2="24.0656" stroke-width="0.5" stroke="rgb(255,0,0)" />
	<line x1="-21.7695" y1="17.4032" x2="0.640773" y2="25.8776" stroke-width="0.5" stroke="rgb(255,0,0)" />
	<line x1="-21.7695" y1="17.4032" x2="-0.56295" y2="27.612" stroke-width="0.5" stroke="rgb(255,0,0)" />
	<line x1="-21.7695" y1="17.4032" x2="-1.73362" y2="29.2989" stroke-width="0.5" stroke="rgb(255,0,0)" />
	<line x1="-21.7695" y1="17.4032" x2="-2.88986" y2="30.9649" stroke-width="0.5" stroke="rgb(255,0,0)" />
	<line x1="-21.7695" y1="17.4032" x2="-2.42322" y2="34.0335" stroke-width="0.5" stroke="rgb(255,0,0)" />
	<line x1="-21.7695" y1="17.4032" x2="-1.66096" y2="37.9912" stroke-width="0.5" stroke="rgb(255,0,0)" />
	<line x1="-21.7695" y1="17.4032" x2="-1.17197" y2="42.5391" stroke-width="0.5" stroke="rgb(255,0,0)" />
	<line x1="-21.7695" y1="17.4032" x2="-3.74921" y2="43.7798" stroke-width="0.5" stroke="rgb(255,0,0)" />
	<line x1="-21.7695" y1="17.4032" x2="-6.25897" y2="44.988" stroke-width="0.5" stroke="rgb(255,0,0)" />
</g>

</svg>
