<?xml version="1.0" standalone="no" ?>
<!DOCTYPE svg PUBLIC "-//W3C//DTD SVG 1.1//EN" "http://www.w3.org/Graphics/SVG/1.1/DTD/svg11.dtd">
<svg width="511px" height="454px" viewBox="-48.698182 -38.420067 97.260038 86.760225" xmlns="http://www.w3.org/2000/svg" version="1.1" >
<g transform="scale(1 -1) translate(0 -9.920091)" >
	<polygon points="-36.0883,-7.54524 -41.3996,-10.8992 -42.3583,-21.9762 -48.6982,-38.4201 41.6416,-37.633 39.3341,-3.0995 48.5619,48.3402 6.02932,36.8127 8.11927,15.1017 -2.98722,31.1052 -0.817857,42.3686 -8.74098,46.1829 -21.7695,17.4032 -11.7715,40.0774 -25.9785,41.0849 -32.3518,47.8067 -33.7105,5.05481 -36.318,-2.90722 17.0732,4.44339 17.598,4.12694 7.06644,-9.56509 0.590474,-6.134 -9.4107,-8.09906 -19.8125,-11.9359 -24.0575,-8.87829 " fill="none" opacity="1" stroke-width="0.1" stroke="rgb(0,0,0)" />
	<line x1="-0.817857" y1="42.3686" x2="-9.0571" y2="45.4846" stroke-width="0.5" stroke="rgb(255,0,0)" />
	<line x1="-0.817857" y1="42.3686" x2="-9.37675" y2="44.7785" stroke-width="0.5" stroke="rgb(255,0,0)" />
	<line x1="-0.817857" y1="42.3686" x2="-9.70499" y2="44.0534" stroke-width="0.5" stroke="rgb(255,0,0)" />
	<line x1="-0.817857" y1="42.3686" x2="-10.0474" y2="43.297" stroke-width="0.5" stroke="rgb(255,0,0)" />
	<line x1="-0.817857" y1="42.3686" x2="-10.4106" y2="42.4947" stroke-width="0.5" stroke="rgb(255,0,0)" />
	<line x1="-0.817857" y1="42.3686" x2="-10.8026" y2="41.6288" stroke-width="0.5" stroke="rgb(255,0,0)" />
	<line x1="-0.817857" y1="42.3686" x2="-11.2338" y2="40.6763" stroke-width="0.5" stroke="rgb(255,0,0)" />
	<line x1="-0.817857" y1="42.3686" x2="-11.7181" y2="39.6066" stroke-width="0.5" stroke="rgb(255,0,0)" />
	<line x1="-0.817857" y1="42.3686" x2="-12.2748" y2="38.3767" stroke-width="0.5" stroke="rgb(255,0,0)" />
	<line x1="-0.817857" y1="42.3686" x2="-12.9325" y2="36.924" stroke-width="0.5" stroke="rgb(255,0,0)" />
	<line x1="-0.817857" y1="42.3686" x2="-13.7345" y2="35.1524" stroke-width="0.5" stroke="rgb(255,0,0)" />
	<line x1="-0.817857" y1="42.3686" x2="-14.7515" y2="32.9058" stroke-width="0.5" stroke="rgb(255,0,0)" />
	<line x1="-0.817857" y1="42.3686" x2="-16.1072" y2="29.9112" stroke-width="0.5" stroke="rgb(255,0,0)" />
	<line x1="-0.817857" y1="42.3686" x2="-18.0394" y2="25.6429" stroke-width="0.5" stroke="rgb(255,0,0)" />
	<line x1="-0.817857" y1="42.3686" x2="-21.0738" y2="18.9401" stroke-width="0.5" stroke="rgb(255,0,0)" />
	<line x1="-0.817857" y1="42.3686" x2="-33.2313" y2="-2.48226" stroke-width="0.5" stroke="rgb(255,0,0)" />
	<line x1="-0.817857" y1="42.3686" x2="-27.1202" y2="-1.64092" stroke-width="0.5" stroke="rgb(255,0,0)" />
	<line x1="-0.817857" y1="42.3686" x2="-21.8083" y2="-0.909611" stroke-width="0.5" stroke="rgb(255,0,0)" />
	<line x1="-0.817857" y1="42.3686" x2="-17.0814" y2="-0.258834" stroke-width="0.5" stroke="rgb(255,0,0)" />
	<line x1="-0.817857" y1="42.3686" x2="-12.7862" y2="0.332505" stroke-width="0.5" stroke="rgb(255,0,0)" />
</g>

</svg>
