<?xml version="1.0" standalone="no" ?>
<!DOCTYPE svg PUBLIC "-//W3C//DTD SVG 1.1//EN" "http://www.w3.org/Graphics/SVG/1.1/DTD/svg11.dtd">
<svg width="511px" height="454px" viewBox="-48.698182 -38.420067 97.260038 86.760225" xmlns="http://www.w3.org/2000/svg" version="1.1" >
<g transform="scale(1 -1) translate(0 -9.920091)" >
	<polygon points="-36.0883,-7.54524 -41.3996,-10.8992 -42.3583,-21.9762 -48.6982,-38.4201 41.6416,-37.633 39.3341,-3.0995 48.5619,48.3402 6.02932,36.8127 8.11927,15.1017 -2.98722,31.1052 -0.817857,42.3686 -8.74098,46.1829 -21.7695,17.4032 -11.7715,40.0774 -25.9785,41.0849 -32.3518,47.8067 -33.7105,5.05481 -36.318,-2.90722 17.0732,4.44339 17.598,4.12694 7.06644,-9.56509 0.590474,-6.134 -9.4107,-8.09906 -19.8125,-11.9359 -24.0575,-8.87829 " fill="none" opacity="1" stroke-width="0.1" stroke="rgb(0,0,0)" />
	<line x1="-33.7105" y1="5.05481" x2="-35.5571" y2="-2.80247" stroke-width="0.5" stroke="rgb(255,0,0)" />
	<line x1="-33.7105" y1="5.05481" x2="-34.8449" y2="-2.70441" stroke-width="0.5" stroke="rgb(255,0,0)" />
	<line x1="-33.7105" y1="5.05481" x2="-34.1672" y2="-2.61112" stroke-width="0.5" stroke="rgb(255,0,0)" />
	<line x1="-33.7105" y1="5.05481" x2="-33.5124" y2="-2.52096" stroke-width="0.5" stroke="rgb(255,0,0)" />
	<line x1="-33.7105" y1="5.05481" x2="-32.8699" y2="-2.43251" stroke-width="0.5" stroke="rgb(255,0,0)" />
	<line x1="-33.7105" y1="5.05481" x2="-32.2301" y2="-2.34443" stroke-width="0.5" stroke="rgb(255,0,0)" />
	<line x1="-33.7105" y1="5.05481" x2="-31.5837" y2="-2.25543" stroke-width="0.5" stroke="rgb(255,0,0)" />
	<line x1="-33.7105" y1="5.05481" x2="-30.9207" y2="-2.16415" stroke-width="0.5" stroke="rgb(255,0,0)" />
	<line x1="-33.7105" y1="5.05481" x2="-30.2302" y2="-2.06909" stroke-width="0.5" stroke="rgb(255,0,0)" />
	<line x1="-33.7105" y1="5.05481" x2="-29.4996" y2="-1.96851" stroke-width="0.5" stroke="rgb(255,0,0)" />
	<line x1="-33.7105" y1="5.05481" x2="-28.7135" y2="-1.86027" stroke-width="0.5" stroke="rgb(255,0,0)" />
	<line x1="-33.7105" y1="5.05481" x2="-27.852" y2="-1.74168" stroke-width="0.5" stroke="rgb(255,0,0)" />
	<line x1="-33.7105" y1="5.05481" x2="-26.8892" y2="-1.60912" stroke-width="0.5" stroke="rgb(255,0,0)" />
	<line x1="-33.7105" y1="5.05481" x2="-25.7888" y2="-1.45762" stroke-width="0.5" stroke="rgb(255,0,0)" />
	<line x1="-33.7105" y1="5.05481" x2="-24.4987" y2="-1.28001" stroke-width="0.5" stroke="rgb(255,0,0)" />
	<line x1="-33.7105" y1="5.05481" x2="-22.9404" y2="-1.06546" stroke-width="0.5" stroke="rgb(255,0,0)" />
	<line x1="-33.7105" y1="5.05481" x2="-20.9884" y2="-0.796731" stroke-width="0.5" stroke="rgb(255,0,0)" />
	<line x1="-33.7105" y1="5.05481" x2="-18.4294" y2="-0.444417" stroke-width="0.5" stroke="rgb(255,0,0)" />
	<line x1="-33.7105" y1="5.05481" x2="-14.8661" y2="0.0461573" stroke-width="0.5" stroke="rgb(255,0,0)" />
	<line x1="-33.7105" y1="5.05481" x2="-9.46474" y2="0.789791" stroke-width="0.5" stroke="rgb(255,0,0)" />
	<line x1="-33.7105" y1="5.05481" x2="-0.12445" y2="2.07571" stroke-width="0.5" stroke="rgb(255,0,0)" />
	<line x1="-33.7105" y1="5.05481" x2="40.7593" y2="4.84546" stroke-width="0.5" stroke="rgb(255,0,0)" />
	<line x1="-33.7105" y1="5.05481" x2="41.9235" y2="11.3352" stroke-width="0.5" stroke="rgb(255,0,0)" />
	<line x1="-33.7105" y1="5.05481" x2="43.1422" y2="18.1288" stroke-width="0.5" stroke="rgb(255,0,0)" />
	<line x1="-33.7105" y1="5.05481" x2="7.63735" y2="15.7961" stroke-width="0.5" stroke="rgb(255,0,0)" />
	<line x1="-33.7105" y1="5.05481" x2="5.47706" y2="18.9089" stroke-width="0.5" stroke="rgb(255,0,0)" />
	<line x1="-33.7105" y1="5.05481" x2="3.41587" y2="21.8789" stroke-width="0.5" stroke="rgb(255,0,0)" />
	<line x1="-33.7105" y1="5.05481" x2="1.41853" y2="24.7569" stroke-width="0.5" stroke="rgb(255,0,0)" />
	<line x1="-33.7105" y1="5.05481" x2="-0.546191" y2="27.5879" stroke-width="0.5" stroke="rgb(255,0,0)" />
	<line x1="-33.7105" y1="5.05481" x2="-2.50758" y2="30.4141" stroke-width="0.5" stroke="rgb(255,0,0)" />
	<line x1="-33.7105" y1="5.05481" x2="-2.12865" y2="35.5629" stroke-width="0.5" stroke="rgb(255,0,0)" />
	<line x1="-33.7105" y1="5.05481" x2="-20.5668" y2="20.1308" stroke-width="0.5" stroke="rgb(255,0,0)" />
	<line x1="-33.7105" y1="5.05481" x2="-17.3467" y2="27.4336" stroke-width="0.5" stroke="rgb(255,0,0)" />
	<line x1="-33.7105" y1="5.05481" x2="-12.4161" y2="40.1231" stroke-width="0.5" stroke="rgb(255,0,0)" />
	<line x1="-33.7105" y1="5.05481" x2="-16.2004" y2="40.3915" stroke-width="0.5" stroke="rgb(255,0,0)" />
	<line x1="-33.7105" y1="5.05481" x2="-19.7272" y2="40.6416" stroke-width="0.5" stroke="rgb(255,0,0)" />
	<line x1="-33.7105" y1="5.05481" x2="-23.0692" y2="40.8786" stroke-width="0.5" stroke="rgb(255,0,0)" />
	<line x1="-33.7105" y1="5.05481" x2="-26.2352" y2="41.3557" stroke-width="0.5" stroke="rgb(255,0,0)" />
	<line x1="-33.7105" y1="5.05481" x2="-29.0747" y2="44.3504" stroke-width="0.5" stroke="rgb(255,0,0)" />
</g>

</svg>
