<?xml version="1.0" standalone="no" ?>
<!DOCTYPE svg PUBLIC "-//W3C//DTD SVG 1.1//EN" "http://www.w3.org/Graphics/SVG/1.1/DTD/svg11.dtd">
<svg width="511px" height="454px" viewBox="-48.698182 -38.420067 97.260038 86.760225" xmlns="http://www.w3.org/2000/svg" version="1.1" >
<g transform="scale(1 -1) translate(0 -9.920091)" >
	<polygon points="-36.0883,-7.54524 -41.3996,-10.8992 -42.3583,-21.9762 -48.6982,-38.4201 41.6416,-37.633 39.3341,-3.0995 48.5619,48.3402 6.02932,36.8127 8.11927,15.1017 -2.98722,31.1052 -0.817857,42.3686 -8.74098,46.1829 -21.7695,17.4032 -11.7715,40.0774 -25.9785,41.0849 -32.3518,47.8067 -33.7105,5.05481 -36.318,-2.90722 17.0732,4.44339 17.598,4.12694 7.06644,-9.56509 0.590474,-6.134 -9.4107,-8.09906 -19.8125,-11.9359 -24.0575,-8.87829 " fill="none" opacity="1" stroke-width="0.1" stroke="rgb(0,0,0)" />
	<line x1="-9.4107" y1="-8.09906" x2="-43.1006" y2="-23.9015" stroke-width="0.5" stroke="rgb(255,0,0)" />
	<line x1="-9.4107" y1="-8.09906" x2="-44.9146" y2="-28.6064" stroke-width="0.5" stroke="rgb(255,0,0)" />
	<line x1="-9.4107" y1="-8.09906" x2="-47.158" y2="-34.4252" stroke-width="0.5" stroke="rgb(255,0,0)" />
	<line x1="-9.4107" y1="-8.09906" x2="-45.8051" y2="-38.3949" stroke-width="0.5" stroke="rgb(255,0,0)" />
	<line x1="-9.4107" y1="-8.09906" x2="-40.0204" y2="-38.3445" stroke-width="0.5" stroke="rgb(255,0,0)" />
	<line x1="-9.4107" y1="-8.09906" x2="-35.1711" y2="-38.3022" stroke-width="0.5" stroke="rgb(255,0,0)" />
	<line x1="-9.4107" y1="-8.09906" x2="-30.9913" y2="-38.2658" stroke-width="0.5" stroke="rgb(255,0,0)" />
	<line x1="-9.4107" y1="-8.09906" x2="-27.3012" y2="-38.2337" stroke-width="0.5" stroke="rgb(255,0,0)" />
	<line x1="-9.4107" y1="-8.09906" x2="-23.9741" y2="-38.2047" stroke-width="0.5" stroke="rgb(255,0,0)" />
	<line x1="-9.4107" y1="-8.09906" x2="-20.9167" y2="-38.178" stroke-width="0.5" stroke="rgb(255,0,0)" />
	<line x1="-9.4107" y1="-8.09906" x2="-18.0576" y2="-38.1531" stroke-width="0.5" stroke="rgb(255,0,0)" />
	<line x1="-9.4107" y1="-8.09906" x2="-15.3401" y2="-38.1294" stroke-width="0.5" stroke="rgb(255,0,0)" />
	<line x1="-9.4107" y1="-8.09906" x2="-12.7168" y2="-38.1066" stroke-width="0.5" stroke="rgb(255,0,0)" />
	<line x1="-9.4107" y1="-8.09906" x2="-10.1463" y2="-38.0842" stroke-width="0.5" stroke="rgb(255,0,0)" />
	<line x1="-9.4107" y1="-8.09906" x2="-7.59032" y2="-38.0619" stroke-width="0.5" stroke="rgb(255,0,0)" />
	<line x1="-9.4107" y1="-8.09906" x2="-5.01155" y2="-38.0395" stroke-width="0.5" stroke="rgb(255,0,0)" />
	<line x1="-9.4107" y1="-8.09906" x2="-2.37125" y2="-38.0165" stroke-width="0.5" stroke="rgb(255,0,0)" />
	<line x1="-9.4107" y1="-8.09906" x2="0.373055" y2="-37.9925" stroke-width="0.5" stroke="rgb(255,0,0)" />
	<line x1="-9.4107" y1="-8.09906" x2="3.27043" y2="-37.9673" stroke-width="0.5" stroke="rgb(255,0,0)" />
	<line x1="-9.4107" y1="-8.09906" x2="6.3804" y2="-37.9402" stroke-width="0.5" stroke="rgb(255,0,0)" />
	<line x1="-9.4107" y1="-8.09906" x2="9.77835" y2="-37.9106" stroke-width="0.5" stroke="rgb(255,0,0)" />
	<line x1="-9.4107" y1="-8.09906" x2="13.5637" y2="-37.8776" stroke-width="0.5" stroke="rgb(255,0,0)" />
	<line x1="-9.4107" y1="-8.09906" x2="17.8729" y2="-37.8401" stroke-width="0.5" stroke="rgb(255,0,0)" />
	<line x1="-9.4107" y1="-8.09906" x2="22.9011" y2="-37.7963" stroke-width="0.5" stroke="rgb(255,0,0)" />
	<line x1="-9.4107" y1="-8.09906" x2="28.9399" y2="-37.7437" stroke-width="0.5" stroke="rgb(255,0,0)" />
	<line x1="-9.4107" y1="-8.09906" x2="36.4491" y2="-37.6782" stroke-width="0.5" stroke="rgb(255,0,0)" />
	<line x1="-9.4107" y1="-8.09906" x2="41.4713" y2="-35.0848" stroke-width="0.5" stroke="rgb(255,0,0)" />
	<line x1="-9.4107" y1="-8.09906" x2="41.105" y2="-29.6018" stroke-width="0.5" stroke="rgb(255,0,0)" />
	<line x1="-9.4107" y1="-8.09906" x2="40.769" y2="-24.5738" stroke-width="0.5" stroke="rgb(255,0,0)" />
	<line x1="-9.4107" y1="-8.09906" x2="40.4554" y2="-19.8812" stroke-width="0.5" stroke="rgb(255,0,0)" />
	<line x1="-9.4107" y1="-8.09906" x2="40.1579" y2="-15.4292" stroke-width="0.5" stroke="rgb(255,0,0)" />
	<line x1="-9.4107" y1="-8.09906" x2="6.10596" y2="-9.05621" stroke-width="0.5" stroke="rgb(255,0,0)" />
	<line x1="-9.4107" y1="-8.09906" x2="3.71467" y2="-7.78926" stroke-width="0.5" stroke="rgb(255,0,0)" />
	<line x1="-9.4107" y1="-8.09906" x2="1.95587" y2="-6.85741" stroke-width="0.5" stroke="rgb(255,0,0)" />
</g>

</svg>
