<?xml version="1.0" standalone="no" ?>
<!DOCTYPE svg PUBLIC "-//W3C//DTD SVG 1.1//EN" "http://www.w3.org/Graphics/SVG/1.1/DTD/svg11.dtd">
<svg width="511px" height="454px" viewBox="-48.698182 -38.420067 97.260038 86.760225" xmlns="http://www.w3.org/2000/svg" version="1.1" >
<g transform="scale(1 -1) translate(0 -9.920091)" >
	<polygon points="-36.0883,-7.54524 -41.3996,-10.8992 -42.3583,-21.9762 -48.6982,-38.4201 41.6416,-37.633 39.3341,-3.0995 48.5619,48.3402 6.02932,36.8127 8.11927,15.1017 -2.98722,31.1052 -0.817857,42.3686 -8.74098,46.1829 -21.7695,17.4032 -11.7715,40.0774 -25.9785,41.0849 -32.3518,47.8067 -33.7105,5.05481 -36.318,-2.90722 17.0732,4.44339 17.598,4.12694 7.06644,-9.56509 0.590474,-6.134 -9.4107,-8.09906 -19.8125,-11.9359 -24.0575,-8.87829 " fill="none" opacity="1" stroke-width="0.1" stroke="rgb(0,0,0)" />
	<line x1="-41.3996" y1="-10.8992" x2="-41.4253" y2="-38.3567" stroke-width="0.5" stroke="rgb(255,0,0)" />
	<line x1="-41.3996" y1="-10.8992" x2="-39.0767" y2="-38.3362" stroke-width="0.5" stroke="rgb(255,0,0)" />
	<line x1="-41.3996" y1="-10.8992" x2="-36.6973" y2="-38.3155" stroke-width="0.5" stroke="rgb(255,0,0)" />
	<line x1="-41.3996" y1="-10.8992" x2="-34.2508" y2="-38.2942" stroke-width="0.5" stroke="rgb(255,0,0)" />
	<line x1="-41.3996" y1="-10.8992" x2="-31.6966" y2="-38.2719" stroke-width="0.5" stroke="rgb(255,0,0)" />
	<line x1="-41.3996" y1="-10.8992" x2="-28.987" y2="-38.2483" stroke-width="0.5" stroke="rgb(255,0,0)" />
	<line x1="-41.3996" y1="-10.8992" x2="-26.0636" y2="-38.2229" stroke-width="0.5" stroke="rgb(255,0,0)" />
	<line x1="-41.3996" y1="-10.8992" x2="-22.8514" y2="-38.1949" stroke-width="0.5" stroke="rgb(255,0,0)" />
	<line x1="-41.3996" y1="-10.8992" x2="-19.2502" y2="-38.1635" stroke-width="0.5" stroke="rgb(255,0,0)" />
	<line x1="-41.3996" y1="-10.8992" x2="-15.1209" y2="-38.1275" stroke-width="0.5" stroke="rgb(255,0,0)" />
	<line x1="-41.3996" y1="-10.8992" x2="-10.2618" y2="-38.0852" stroke-width="0.5" stroke="rgb(255,0,0)" />
	<line x1="-41.3996" y1="-10.8992" x2="-4.36661" y2="-38.0338" stroke-width="0.5" stroke="rgb(255,0,0)" />
	<line x1="-41.3996" y1="-10.8992" x2="3.05654" y2="-37.9692" stroke-width="0.5" stroke="rgb(255,0,0)" />
	<line x1="-41.3996" y1="-10.8992" x2="12.8539" y2="-37.8838" stroke-width="0.5" stroke="rgb(255,0,0)" />
	<line x1="-41.3996" y1="-10.8992" x2="26.6198" y2="-37.7639" stroke-width="0.5" stroke="rgb(255,0,0)" />
	<line x1="-41.3996" y1="-10.8992" x2="41.5131" y2="-35.7093" stroke-width="0.5" stroke="rgb(255,0,0)" />
	<line x1="-41.3996" y1="-10.8992" x2="41.0021" y2="-28.0626" stroke-width="0.5" stroke="rgb(255,0,0)" />
	<line x1="-41.3996" y1="-10.8992" x2="40.515" y2="-20.7726" stroke-width="0.5" stroke="rgb(255,0,0)" />
	<line x1="-41.3996" y1="-10.8992" x2="-20.236" y2="-11.6308" stroke-width="0.5" stroke="rgb(255,0,0)" />
	<line x1="-41.3996" y1="-10.8992" x2="-22.5812" y2="-9.94159" stroke-width="0.5" stroke="rgb(255,0,0)" />
	<line x1="-41.3996" y1="-10.8992" x2="-25.4958" y2="-8.71892" stroke-width="0.5" stroke="rgb(255,0,0)" />
	<line x1="-41.3996" y1="-10.8992" x2="-29.6712" y2="-8.25627" stroke-width="0.5" stroke="rgb(255,0,0)" />
	<line x1="-41.3996" y1="-10.8992" x2="-32.1854" y2="-7.97769" stroke-width="0.5" stroke="rgb(255,0,0)" />
	<line x1="-41.3996" y1="-10.8992" x2="-33.886" y2="-7.78926" stroke-width="0.5" stroke="rgb(255,0,0)" />
	<line x1="-41.3996" y1="-10.8992" x2="-35.1285" y2="-7.65159" stroke-width="0.5" stroke="rgb(255,0,0)" />
</g>

</svg>
