<?xml version="1.0" standalone="no" ?>
<!DOCTYPE svg PUBLIC "-//W3C//DTD SVG 1.1//EN" "http://www.w3.org/Graphics/SVG/1.1/DTD/svg11.dtd">
<svg width="511px" height="454px" viewBox="-48.698182 -38.420067 97.260038 86.760225" xmlns="http://www.w3.org/2000/svg" version="1.1" >
<g transform="scale(1 -1) translate(0 -9.920091)" >
	<polygon points="-36.0883,-7.54524 -41.3996,-10.8992 -42.3583,-21.9762 -48.6982,-38.4201 41.6416,-37.633 39.3341,-3.0995 48.5619,48.3402 6.02932,36.8127 8.11927,15.1017 -2.98722,31.1052 -0.817857,42.3686 -8.74098,46.1829 -21.7695,17.4032 -11.7715,40.0774 -25.9785,41.0849 -32.3518,47.8067 -33.7105,5.05481 -36.318,-2.90722 17.0732,4.44339 17.598,4.12694 7.06644,-9.56509 0.590474,-6.134 -9.4107,-8.09906 -19.8125,-11.9359 -24.0575,-8.87829 " fill="none" opacity="1" stroke-width="0.1" stroke="rgb(0,0,0)" />
	<line x1="-36.0883" y1="-7.54524" x2="-41.4617" y2="-11.6161" stroke-width="0.5" stroke="rgb(255,0,0)" />
	<line x1="-36.0883" y1="-7.54524" x2="-41.5341" y2="-12.4527" stroke-width="0.5" stroke="rgb(255,0,0)" />
	<line x1="-36.0883" y1="-7.54524" x2="-41.6211" y2="-13.4576" stroke-width="0.5" stroke="rgb(255,0,0)" />
	<line x1="-36.0883" y1="-7.54524" x2="-41.7292" y2="-14.7073" stroke-width="0.5" stroke="rgb(255,0,0)" />
	<line x1="-36.0883" y1="-7.54524" x2="-41.8697" y2="-16.3304" stroke-width="0.5" stroke="rgb(255,0,0)" />
	<line x1="-36.0883" y1="-7.54524" x2="-42.0628" y2="-18.5616" stroke-width="0.5" stroke="rgb(255,0,0)" />
	<line x1="-36.0883" y1="-7.54524" x2="-42.35" y2="-21.8803" stroke-width="0.5" stroke="rgb(255,0,0)" />
	<line x1="-36.0883" y1="-7.54524" x2="-46.5447" y2="-38.4013" stroke-width="0.5" stroke="rgb(255,0,0)" />
	<line x1="-36.0883" y1="-7.54524" x2="-43.6864" y2="-38.3764" stroke-width="0.5" stroke="rgb(255,0,0)" />
	<line x1="-36.0883" y1="-7.54524" x2="-40.9502" y2="-38.3526" stroke-width="0.5" stroke="rgb(255,0,0)" />
	<line x1="-36.0883" y1="-7.54524" x2="-38.2907" y2="-38.3294" stroke-width="0.5" stroke="rgb(255,0,0)" />
	<line x1="-36.0883" y1="-7.54524" x2="-35.6674" y2="-38.3065" stroke-width="0.5" stroke="rgb(255,0,0)" />
	<line x1="-36.0883" y1="-7.54524" x2="-33.0418" y2="-38.2837" stroke-width="0.5" stroke="rgb(255,0,0)" />
	<line x1="-36.0883" y1="-7.54524" x2="-30.3755" y2="-38.2604" stroke-width="0.5" stroke="rgb(255,0,0)" />
	<line x1="-36.0883" y1="-7.54524" x2="-27.6275" y2="-38.2365" stroke-width="0.5" stroke="rgb(255,0,0)" />
	<line x1="-36.0883" y1="-7.54524" x2="-24.7517" y2="-38.2114" stroke-width="0.5" stroke="rgb(255,0,0)" />
	<line x1="-36.0883" y1="-7.54524" x2="-21.6937" y2="-38.1848" stroke-width="0.5" stroke="rgb(255,0,0)" />
	<line x1="-36.0883" y1="-7.54524" x2="-18.3864" y2="-38.156" stroke-width="0.5" stroke="rgb(255,0,0)" />
	<line x1="-36.0883" y1="-7.54524" x2="-14.743" y2="-38.1242" stroke-width="0.5" stroke="rgb(255,0,0)" />
	<line x1="-36.0883" y1="-7.54524" x2="-10.6473" y2="-38.0886" stroke-width="0.5" stroke="rgb(255,0,0)" />
	<line x1="-36.0883" y1="-7.54524" x2="-5.9368" y2="-38.0475" stroke-width="0.5" stroke="rgb(255,0,0)" />
	<line x1="-36.0883" y1="-7.54524" x2="-0.375048" y2="-37.9991" stroke-width="0.5" stroke="rgb(255,0,0)" />
	<line x1="-36.0883" y1="-7.54524" x2="6.39928" y2="-37.94" stroke-width="0.5" stroke="rgb(255,0,0)" />
	<line x1="-36.0883" y1="-7.54524" x2="14.9703" y2="-37.8654" stroke-width="0.5" stroke="rgb(255,0,0)" />
	<line x1="-36.0883" y1="-7.54524" x2="26.3515" y2="-37.7662" stroke-width="0.5" stroke="rgb(255,0,0)" />
	<line x1="-36.0883" y1="-7.54524" x2="41.6192" y2="-37.2981" stroke-width="0.5" stroke="rgb(255,0,0)" />
	<line x1="-36.0883" y1="-7.54524" x2="41.1177" y2="-29.793" stroke-width="0.5" stroke="rgb(255,0,0)" />
	<line x1="-36.0883" y1="-7.54524" x2="-22.0493" y2="-10.3247" stroke-width="0.5" stroke="rgb(255,0,0)" />
</g>

</svg>
