<?xml version="1.0" standalone="no" ?>
<!DOCTYPE svg PUBLIC "-//W3C//DTD SVG 1.1//EN" "http://www.w3.org/Graphics/SVG/1.1/DTD/svg11.dtd">
<svg width="511px" height="454px" viewBox="-48.698182 -38.420067 97.260038 86.760225" xmlns="http://www.w3.org/2000/svg" version="1.1" >
<g transform="scale(1 -1) translate(0 -9.920091)" >
	<polygon points="-36.0883,-7.54524 -41.3996,-10.8992 -42.3583,-21.9762 -48.6982,-38.4201 41.6416,-37.633 39.3341,-3.0995 48.5619,48.3402 6.02932,36.8127 8.11927,15.1017 -2.98722,31.1052 -0.817857,42.3686 -8.74098,46.1829 -21.7695,17.4032 -11.7715,40.0774 -25.9785,41.0849 -32.3518,47.8067 -33.7105,5.05481 -36.318,-2.90722 17.0732,4.44339 17.598,4.12694 7.06644,-9.56509 0.590474,-6.134 -9.4107,-8.09906 -19.8125,-11.9359 -24.0575,-8.87829 " fill="none" opacity="1" stroke-width="0.1" stroke="rgb(0,0,0)" />
	<line x1="-25.9785" y1="41.0849" x2="-32.3848" y2="46.7688" stroke-width="0.5" stroke="rgb(255,0,0)" />
	<line x1="-25.9785" y1="41.0849" x2="-32.4133" y2="45.8703" stroke-width="0.5" stroke="rgb(255,0,0)" />
	<line x1="-25.9785" y1="41.0849" x2="-32.4386" y2="45.0737" stroke-width="0.5" stroke="rgb(255,0,0)" />
	<line x1="-25.9785" y1="41.0849" x2="-32.4615" y2="44.3526" stroke-width="0.5" stroke="rgb(255,0,0)" />
	<line x1="-25.9785" y1="41.0849" x2="-32.4827" y2="43.6872" stroke-width="0.5" stroke="rgb(255,0,0)" />
	<line x1="-25.9785" y1="41.0849" x2="-32.5025" y2="43.0624" stroke-width="0.5" stroke="rgb(255,0,0)" />
	<line x1="-25.9785" y1="41.0849" x2="-32.5215" y2="42.4659" stroke-width="0.5" stroke="rgb(255,0,0)" />
	<line x1="-25.9785" y1="41.0849" x2="-32.5399" y2="41.8876" stroke-width="0.5" stroke="rgb(255,0,0)" />
	<line x1="-25.9785" y1="41.0849" x2="-32.558" y2="41.3182" stroke-width="0.5" stroke="rgb(255,0,0)" />
	<line x1="-25.9785" y1="41.0849" x2="-32.5761" y2="40.7492" stroke-width="0.5" stroke="rgb(255,0,0)" />
	<line x1="-25.9785" y1="41.0849" x2="-32.5944" y2="40.172" stroke-width="0.5" stroke="rgb(255,0,0)" />
	<line x1="-25.9785" y1="41.0849" x2="-32.6133" y2="39.5775" stroke-width="0.5" stroke="rgb(255,0,0)" />
	<line x1="-25.9785" y1="41.0849" x2="-32.6331" y2="38.9555" stroke-width="0.5" stroke="rgb(255,0,0)" />
	<line x1="-25.9785" y1="41.0849" x2="-32.6541" y2="38.2941" stroke-width="0.5" stroke="rgb(255,0,0)" />
	<line x1="-25.9785" y1="41.0849" x2="-32.6768" y2="37.5784" stroke-width="0.5" stroke="rgb(255,0,0)" />
	<line x1="-25.9785" y1="41.0849" x2="-32.7019" y2="36.7892" stroke-width="0.5" stroke="rgb(255,0,0)" />
	<line x1="-25.9785" y1="41.0849" x2="-32.7302" y2="35.9006" stroke-width="0.5" stroke="rgb(255,0,0)" />
	<line x1="-25.9785" y1="41.0849" x2="-32.7627" y2="34.8765" stroke-width="0.5" stroke="rgb(255,0,0)" />
	<line x1="-25.9785" y1="41.0849" x2="-32.8013" y2="33.6636" stroke-width="0.5" stroke="rgb(255,0,0)" />
	<line x1="-25.9785" y1="41.0849" x2="-32.8484" y2="32.1802" stroke-width="0.5" stroke="rgb(255,0,0)" />
	<line x1="-25.9785" y1="41.0849" x2="-32.9084" y2="30.2931" stroke-width="0.5" stroke="rgb(255,0,0)" />
	<line x1="-25.9785" y1="41.0849" x2="-32.9886" y2="27.7678" stroke-width="0.5" stroke="rgb(255,0,0)" />
	<line x1="-25.9785" y1="41.0849" x2="-33.1036" y2="24.1504" stroke-width="0.5" stroke="rgb(255,0,0)" />
	<line x1="-25.9785" y1="41.0849" x2="-33.2855" y2="18.4282" stroke-width="0.5" stroke="rgb(255,0,0)" />
	<line x1="-25.9785" y1="41.0849" x2="-33.6236" y2="7.78778" stroke-width="0.5" stroke="rgb(255,0,0)" />
	<line x1="-25.9785" y1="41.0849" x2="-32.0693" y2="-2.32229" stroke-width="0.5" stroke="rgb(255,0,0)" />
	<line x1="-25.9785" y1="41.0849" x2="-28.2587" y2="-1.79766" stroke-width="0.5" stroke="rgb(255,0,0)" />
	<line x1="-25.9785" y1="41.0849" x2="-24.5728" y2="-1.2902" stroke-width="0.5" stroke="rgb(255,0,0)" />
	<line x1="-25.9785" y1="41.0849" x2="-20.9526" y2="-0.791796" stroke-width="0.5" stroke="rgb(255,0,0)" />
	<line x1="-25.9785" y1="41.0849" x2="-21.272" y2="18.5315" stroke-width="0.5" stroke="rgb(255,0,0)" />
	<line x1="-25.9785" y1="41.0849" x2="-20.0392" y2="21.3273" stroke-width="0.5" stroke="rgb(255,0,0)" />
	<line x1="-25.9785" y1="41.0849" x2="-19.033" y2="23.6093" stroke-width="0.5" stroke="rgb(255,0,0)" />
	<line x1="-25.9785" y1="41.0849" x2="-18.1845" y2="25.5334" stroke-width="0.5" stroke="rgb(255,0,0)" />
	<line x1="-25.9785" y1="41.0849" x2="-17.4494" y2="27.2006" stroke-width="0.5" stroke="rgb(255,0,0)" />
	<line x1="-25.9785" y1="41.0849" x2="-16.7972" y2="28.6798" stroke-width="0.5" stroke="rgb(255,0,0)" />
	<line x1="-25.9785" y1="41.0849" x2="-16.2062" y2="30.0199" stroke-width="0.5" stroke="rgb(255,0,0)" />
	<line x1="-25.9785" y1="41.0849" x2="-15.6607" y2="31.2572" stroke-width="0.5" stroke="rgb(255,0,0)" />
	<line x1="-25.9785" y1="41.0849" x2="-15.1481" y2="32.4197" stroke-width="0.5" stroke="rgb(255,0,0)" />
	<line x1="-25.9785" y1="41.0849" x2="-14.6585" y2="33.53" stroke-width="0.5" stroke="rgb(255,0,0)" />
	<line x1="-25.9785" y1="41.0849" x2="-14.1835" y2="34.6072" stroke-width="0.5" stroke="rgb(255,0,0)" />
	<line x1="-25.9785" y1="41.0849" x2="-13.7156" y2="35.6683" stroke-width="0.5" stroke="rgb(255,0,0)" />
	<line x1="-25.9785" y1="41.0849" x2="-13.2478" y2="36.7293" stroke-width="0.5" stroke="rgb(255,0,0)" />
	<line x1="-25.9785" y1="41.0849" x2="-12.773" y2="37.8061" stroke-width="0.5" stroke="rgb(255,0,0)" />
	<line x1="-25.9785" y1="41.0849" x2="-12.2837" y2="38.9158" stroke-width="0.5" stroke="rgb(255,0,0)" />
</g>

</svg>
