<?xml version="1.0" standalone="no" ?>
<!DOCTYPE svg PUBLIC "-//W3C//DTD SVG 1.1//EN" "http://www.w3.org/Graphics/SVG/1.1/DTD/svg11.dtd">
<svg width="511px" height="454px" viewBox="-48.698182 -38.420067 97.260038 86.760225" xmlns="http://www.w3.org/2000/svg" version="1.1" >
<g transform="scale(1 -1) translate(0 -9.920091)" >
	<polygon points="-36.0883,-7.54524 -41.3996,-10.8992 -42.3583,-21.9762 -48.6982,-38.4201 41.6416,-37.633 39.3341,-3.0995 48.5619,48.3402 6.02932,36.8127 8.11927,15.1017 -2.98722,31.1052 -0.817857,42.3686 -8.74098,46.1829 -21.7695,17.4032 -11.7715,40.0774 -25.9785,41.0849 -32.3518,47.8067 -33.7105,5.05481 -36.318,-2.90722 17.0732,4.44339 17.598,4.12694 7.06644,-9.56509 0.590474,-6.134 -9.4107,-8.09906 -19.8125,-11.9359 -24.0575,-8.87829 " fill="none" opacity="1" stroke-width="0.1" stroke="rgb(0,0,0)" />
	<line x1="0.590474" y1="-6.134" x2="-42.0437" y2="-18.3407" stroke-width="0.5" stroke="rgb(255,0,0)" />
	<line x1="0.590474" y1="-6.134" x2="-42.5866" y2="-22.5682" stroke-width="0.5" stroke="rgb(255,0,0)" />
	<line x1="0.590474" y1="-6.134" x2="-44.6432" y2="-27.9025" stroke-width="0.5" stroke="rgb(255,0,0)" />
	<line x1="0.590474" y1="-6.134" x2="-47.1092" y2="-34.2985" stroke-width="0.5" stroke="rgb(255,0,0)" />
	<line x1="0.590474" y1="-6.134" x2="-44.757" y2="-38.3857" stroke-width="0.5" stroke="rgb(255,0,0)" />
	<line x1="0.590474" y1="-6.134" x2="-37.388" y2="-38.3215" stroke-width="0.5" stroke="rgb(255,0,0)" />
	<line x1="0.590474" y1="-6.134" x2="-31.3848" y2="-38.2692" stroke-width="0.5" stroke="rgb(255,0,0)" />
	<line x1="0.590474" y1="-6.134" x2="-26.3335" y2="-38.2252" stroke-width="0.5" stroke="rgb(255,0,0)" />
	<line x1="0.590474" y1="-6.134" x2="-21.9662" y2="-38.1872" stroke-width="0.5" stroke="rgb(255,0,0)" />
	<line x1="0.590474" y1="-6.134" x2="-18.1008" y2="-38.1535" stroke-width="0.5" stroke="rgb(255,0,0)" />
	<line x1="0.590474" y1="-6.134" x2="-14.6081" y2="-38.1231" stroke-width="0.5" stroke="rgb(255,0,0)" />
	<line x1="0.590474" y1="-6.134" x2="-11.3925" y2="-38.095" stroke-width="0.5" stroke="rgb(255,0,0)" />
	<line x1="0.590474" y1="-6.134" x2="-8.3807" y2="-38.0688" stroke-width="0.5" stroke="rgb(255,0,0)" />
	<line x1="0.590474" y1="-6.134" x2="-5.51409" y2="-38.0438" stroke-width="0.5" stroke="rgb(255,0,0)" />
	<line x1="0.590474" y1="-6.134" x2="-2.74354" y2="-38.0197" stroke-width="0.5" stroke="rgb(255,0,0)" />
	<line x1="0.590474" y1="-6.134" x2="-0.0258992" y2="-37.996" stroke-width="0.5" stroke="rgb(255,0,0)" />
	<line x1="0.590474" y1="-6.134" x2="2.6788" y2="-37.9725" stroke-width="0.5" stroke="rgb(255,0,0)" />
	<line x1="0.590474" y1="-6.134" x2="5.40977" y2="-37.9487" stroke-width="0.5" stroke="rgb(255,0,0)" />
	<line x1="0.590474" y1="-6.134" x2="8.20779" y2="-37.9243" stroke-width="0.5" stroke="rgb(255,0,0)" />
	<line x1="0.590474" y1="-6.134" x2="11.1177" y2="-37.8989" stroke-width="0.5" stroke="rgb(255,0,0)" />
	<line x1="0.590474" y1="-6.134" x2="14.1913" y2="-37.8722" stroke-width="0.5" stroke="rgb(255,0,0)" />
	<line x1="0.590474" y1="-6.134" x2="17.4916" y2="-37.8434" stroke-width="0.5" stroke="rgb(255,0,0)" />
	<line x1="0.590474" y1="-6.134" x2="21.0985" y2="-37.812" stroke-width="0.5" stroke="rgb(255,0,0)" />
	<line x1="0.590474" y1="-6.134" x2="25.1172" y2="-37.777" stroke-width="0.5" stroke="rgb(255,0,0)" />
	<line x1="0.590474" y1="-6.134" x2="29.6923" y2="-37.7371" stroke-width="0.5" stroke="rgb(255,0,0)" />
	<line x1="0.590474" y1="-6.134" x2="35.0303" y2="-37.6906" stroke-width="0.5" stroke="rgb(255,0,0)" />
	<line x1="0.590474" y1="-6.134" x2="41.4397" y2="-37.6348" stroke-width="0.5" stroke="rgb(255,0,0)" />
	<line x1="0.590474" y1="-6.134" x2="41.2878" y2="-32.338" stroke-width="0.5" stroke="rgb(255,0,0)" />
</g>

</svg>
