<?xml version="1.0" standalone="no" ?>
<!DOCTYPE svg PUBLIC "-//W3C//DTD SVG 1.1//EN" "http://www.w3.org/Graphics/SVG/1.1/DTD/svg11.dtd">
<svg width="511px" height="454px" viewBox="-48.698182 -38.420067 97.260038 86.760225" xmlns="http://www.w3.org/2000/svg" version="1.1" >
<g transform="scale(1 -1) translate(0 -9.920091)" >
	<polygon points="-36.0883,-7.54524 -41.3996,-10.8992 -42.3583,-21.9762 -48.6982,-38.4201 41.6416,-37.633 39.3341,-3.0995 48.5619,48.3402 6.02932,36.8127 8.11927,15.1017 -2.98722,31.1052 -0.817857,42.3686 -8.74098,46.1829 -21.7695,17.4032 -11.7715,40.0774 -25.9785,41.0849 -32.3518,47.8067 -33.7105,5.05481 -36.318,-2.90722 17.0732,4.44339 17.598,4.12694 7.06644,-9.56509 0.590474,-6.134 -9.4107,-8.09906 -19.8125,-11.9359 -24.0575,-8.87829 " fill="none" opacity="1" stroke-width="0.1" stroke="rgb(0,0,0)" />
	<line x1="-24.0575" y1="-8.87829" x2="-37.6485" y2="-8.53046" stroke-width="0.5" stroke="rgb(255,0,0)" />
	<line x1="-24.0575" y1="-8.87829" x2="-39.6635" y2="-9.80291" stroke-width="0.5" stroke="rgb(255,0,0)" />
	<line x1="-24.0575" y1="-8.87829" x2="-41.4428" y2="-11.3982" stroke-width="0.5" stroke="rgb(255,0,0)" />
	<line x1="-24.0575" y1="-8.87829" x2="-41.5777" y2="-12.9567" stroke-width="0.5" stroke="rgb(255,0,0)" />
	<line x1="-24.0575" y1="-8.87829" x2="-41.7203" y2="-14.6039" stroke-width="0.5" stroke="rgb(255,0,0)" />
	<line x1="-24.0575" y1="-8.87829" x2="-41.8735" y2="-16.3739" stroke-width="0.5" stroke="rgb(255,0,0)" />
	<line x1="-24.0575" y1="-8.87829" x2="-42.041" y2="-18.3095" stroke-width="0.5" stroke="rgb(255,0,0)" />
	<line x1="-24.0575" y1="-8.87829" x2="-42.2278" y2="-20.4679" stroke-width="0.5" stroke="rgb(255,0,0)" />
	<line x1="-24.0575" y1="-8.87829" x2="-42.8437" y2="-23.235" stroke-width="0.5" stroke="rgb(255,0,0)" />
	<line x1="-24.0575" y1="-8.87829" x2="-44.4479" y2="-27.396" stroke-width="0.5" stroke="rgb(255,0,0)" />
	<line x1="-24.0575" y1="-8.87829" x2="-46.7054" y2="-33.2513" stroke-width="0.5" stroke="rgb(255,0,0)" />
	<line x1="-24.0575" y1="-8.87829" x2="-47.1626" y2="-38.4067" stroke-width="0.5" stroke="rgb(255,0,0)" />
	<line x1="-24.0575" y1="-8.87829" x2="-43.3479" y2="-38.3735" stroke-width="0.5" stroke="rgb(255,0,0)" />
	<line x1="-24.0575" y1="-8.87829" x2="-39.9421" y2="-38.3438" stroke-width="0.5" stroke="rgb(255,0,0)" />
	<line x1="-24.0575" y1="-8.87829" x2="-36.8406" y2="-38.3168" stroke-width="0.5" stroke="rgb(255,0,0)" />
	<line x1="-24.0575" y1="-8.87829" x2="-33.965" y2="-38.2917" stroke-width="0.5" stroke="rgb(255,0,0)" />
	<line x1="-24.0575" y1="-8.87829" x2="-31.2538" y2="-38.2681" stroke-width="0.5" stroke="rgb(255,0,0)" />
	<line x1="-24.0575" y1="-8.87829" x2="-28.6573" y2="-38.2455" stroke-width="0.5" stroke="rgb(255,0,0)" />
	<line x1="-24.0575" y1="-8.87829" x2="-26.1328" y2="-38.2235" stroke-width="0.5" stroke="rgb(255,0,0)" />
	<line x1="-24.0575" y1="-8.87829" x2="-23.6421" y2="-38.2018" stroke-width="0.5" stroke="rgb(255,0,0)" />
	<line x1="-24.0575" y1="-8.87829" x2="-21.1492" y2="-38.1801" stroke-width="0.5" stroke="rgb(255,0,0)" />
	<line x1="-24.0575" y1="-8.87829" x2="-18.6176" y2="-38.158" stroke-width="0.5" stroke="rgb(255,0,0)" />
	<line x1="-24.0575" y1="-8.87829" x2="-16.0089" y2="-38.1353" stroke-width="0.5" stroke="rgb(255,0,0)" />
	<line x1="-24.0575" y1="-8.87829" x2="-13.2795" y2="-38.1115" stroke-width="0.5" stroke="rgb(255,0,0)" />
	<line x1="-24.0575" y1="-8.87829" x2="-10.3786" y2="-38.0862" stroke-width="0.5" stroke="rgb(255,0,0)" />
	<line x1="-24.0575" y1="-8.87829" x2="-7.2428" y2="-38.0589" stroke-width="0.5" stroke="rgb(255,0,0)" />
	<line x1="-24.0575" y1="-8.87829" x2="-3.79095" y2="-38.0288" stroke-width="0.5" stroke="rgb(255,0,0)" />
	<line x1="-24.0575" y1="-8.87829" x2="0.0858257" y2="-37.995" stroke-width="0.5" stroke="rgb(255,0,0)" />
	<line x1="-24.0575" y1="-8.87829" x2="4.53917" y2="-37.9562" stroke-width="0.5" stroke="rgb(255,0,0)" />
	<line x1="-24.0575" y1="-8.87829" x2="9.78937" y2="-37.9105" stroke-width="0.5" stroke="rgb(255,0,0)" />
</g>

</svg>
