<?xml version="1.0" standalone="no" ?>
<!DOCTYPE svg PUBLIC "-//W3C//DTD SVG 1.1//EN" "http://www.w3.org/Graphics/SVG/1.1/DTD/svg11.dtd">
<svg width="511px" height="454px" viewBox="-48.698182 -38.420067 97.260038 86.760225" xmlns="http://www.w3.org/2000/svg" version="1.1" >
<g transform="scale(1 -1) translate(0 -9.920091)" >
	<polygon points="-36.0883,-7.54524 -41.3996,-10.8992 -42.3583,-21.9762 -48.6982,-38.4201 41.6416,-37.633 39.3341,-3.0995 48.5619,48.3402 6.02932,36.8127 8.11927,15.1017 -2.98722,31.1052 -0.817857,42.3686 -8.74098,46.1829 -21.7695,17.4032 -11.7715,40.0774 -25.9785,41.0849 -32.3518,47.8067 -33.7105,5.05481 -36.318,-2.90722 17.0732,4.44339 17.598,4.12694 7.06644,-9.56509 0.590474,-6.134 -9.4107,-8.09906 -19.8125,-11.9359 -24.0575,-8.87829 " fill="none" opacity="1" stroke-width="0.1" stroke="rgb(0,0,0)" />
	<line x1="8.11927" y1="15.1017" x2="-11.8963" y2="39.2129" stroke-width="0.5" stroke="rgb(255,0,0)" />
	<line x1="8.11927" y1="15.1017" x2="-13.0875" y2="36.5815" stroke-width="0.5" stroke="rgb(255,0,0)" />
	<line x1="8.11927" y1="15.1017" x2="-14.2023" y2="34.119" stroke-width="0.5" stroke="rgb(255,0,0)" />
	<line x1="8.11927" y1="15.1017" x2="-15.2629" y2="31.7761" stroke-width="0.5" stroke="rgb(255,0,0)" />
	<line x1="8.11927" y1="15.1017" x2="-16.2881" y2="29.5116" stroke-width="0.5" stroke="rgb(255,0,0)" />
	<line x1="8.11927" y1="15.1017" x2="-17.2941" y2="27.2892" stroke-width="0.5" stroke="rgb(255,0,0)" />
	<line x1="8.11927" y1="15.1017" x2="-18.2964" y2="25.0752" stroke-width="0.5" stroke="rgb(255,0,0)" />
	<line x1="8.11927" y1="15.1017" x2="-19.3098" y2="22.8365" stroke-width="0.5" stroke="rgb(255,0,0)" />
	<line x1="8.11927" y1="15.1017" x2="-20.3501" y2="20.5386" stroke-width="0.5" stroke="rgb(255,0,0)" />
	<line x1="8.11927" y1="15.1017" x2="-21.4346" y2="18.143" stroke-width="0.5" stroke="rgb(255,0,0)" />
	<line x1="8.11927" y1="15.1017" x2="-33.3696" y2="15.7817" stroke-width="0.5" stroke="rgb(255,0,0)" />
	<line x1="8.11927" y1="15.1017" x2="-33.4836" y2="12.1944" stroke-width="0.5" stroke="rgb(255,0,0)" />
	<line x1="8.11927" y1="15.1017" x2="-33.5996" y2="8.54348" stroke-width="0.5" stroke="rgb(255,0,0)" />
	<line x1="8.11927" y1="15.1017" x2="-33.8109" y2="4.74818" stroke-width="0.5" stroke="rgb(255,0,0)" />
	<line x1="8.11927" y1="15.1017" x2="-35.2581" y2="0.329307" stroke-width="0.5" stroke="rgb(255,0,0)" />
	<line x1="8.11927" y1="15.1017" x2="-31.2304" y2="-2.20679" stroke-width="0.5" stroke="rgb(255,0,0)" />
	<line x1="8.11927" y1="15.1017" x2="-20.93" y2="-0.788687" stroke-width="0.5" stroke="rgb(255,0,0)" />
	<line x1="8.11927" y1="15.1017" x2="-14.4393" y2="0.104921" stroke-width="0.5" stroke="rgb(255,0,0)" />
	<line x1="8.11927" y1="15.1017" x2="-9.91805" y2="0.727382" stroke-width="0.5" stroke="rgb(255,0,0)" />
	<line x1="8.11927" y1="15.1017" x2="-6.5446" y2="1.19182" stroke-width="0.5" stroke="rgb(255,0,0)" />
	<line x1="8.11927" y1="15.1017" x2="-3.89629" y2="1.55643" stroke-width="0.5" stroke="rgb(255,0,0)" />
	<line x1="8.11927" y1="15.1017" x2="-1.73308" y2="1.85425" stroke-width="0.5" stroke="rgb(255,0,0)" />
	<line x1="8.11927" y1="15.1017" x2="0.0918995" y2="2.1055" stroke-width="0.5" stroke="rgb(255,0,0)" />
	<line x1="8.11927" y1="15.1017" x2="1.67395" y2="2.32331" stroke-width="0.5" stroke="rgb(255,0,0)" />
	<line x1="8.11927" y1="15.1017" x2="3.07804" y2="2.51662" stroke-width="0.5" stroke="rgb(255,0,0)" />
	<line x1="8.11927" y1="15.1017" x2="4.35045" y2="2.6918" stroke-width="0.5" stroke="rgb(255,0,0)" />
	<line x1="8.11927" y1="15.1017" x2="5.52549" y2="2.85357" stroke-width="0.5" stroke="rgb(255,0,0)" />
	<line x1="8.11927" y1="15.1017" x2="6.62967" y2="3.00559" stroke-width="0.5" stroke="rgb(255,0,0)" />
	<line x1="8.11927" y1="15.1017" x2="7.68438" y2="3.15079" stroke-width="0.5" stroke="rgb(255,0,0)" />
	<line x1="8.11927" y1="15.1017" x2="8.70769" y2="3.29168" stroke-width="0.5" stroke="rgb(255,0,0)" />
	<line x1="8.11927" y1="15.1017" x2="9.71569" y2="3.43045" stroke-width="0.5" stroke="rgb(255,0,0)" />
	<line x1="8.11927" y1="15.1017" x2="10.7235" y2="3.56921" stroke-width="0.5" stroke="rgb(255,0,0)" />
	<line x1="8.11927" y1="15.1017" x2="11.7464" y2="3.71003" stroke-width="0.5" stroke="rgb(255,0,0)" />
	<line x1="8.11927" y1="15.1017" x2="12.8003" y2="3.85513" stroke-width="0.5" stroke="rgb(255,0,0)" />
	<line x1="8.11927" y1="15.1017" x2="13.9033" y2="4.00698" stroke-width="0.5" stroke="rgb(255,0,0)" />
	<line x1="8.11927" y1="15.1017" x2="15.0766" y2="4.16852" stroke-width="0.5" stroke="rgb(255,0,0)" />
	<line x1="8.11927" y1="15.1017" x2="16.3467" y2="4.34338" stroke-width="0.5" stroke="rgb(255,0,0)" />
	<line x1="8.11927" y1="15.1017" x2="40.4915" y2="-20.4208" stroke-width="0.5" stroke="rgb(255,0,0)" />
	<line x1="8.11927" y1="15.1017" x2="40.0906" y2="-14.4215" stroke-width="0.5" stroke="rgb(255,0,0)" />
	<line x1="8.11927" y1="15.1017" x2="39.7567" y2="-9.42449" stroke-width="0.5" stroke="rgb(255,0,0)" />
	<line x1="8.11927" y1="15.1017" x2="39.4704" y2="-5.13945" stroke-width="0.5" stroke="rgb(255,0,0)" />
	<line x1="8.11927" y1="15.1017" x2="39.607" y2="-1.57796" stroke-width="0.5" stroke="rgb(255,0,0)" />
	<line x1="8.11927" y1="15.1017" x2="40.1622" y2="1.517" stroke-width="0.5" stroke="rgb(255,0,0)" />
	<line x1="8.11927" y1="15.1017" x2="40.696" y2="4.49281" stroke-width="0.5" stroke="rgb(255,0,0)" />
	<line x1="8.11927" y1="15.1017" x2="41.2173" y2="7.39841" stroke-width="0.5" stroke="rgb(255,0,0)" />
	<line x1="8.11927" y1="15.1017" x2="41.7339" y2="10.2784" stroke-width="0.5" stroke="rgb(255,0,0)" />
	<line x1="8.11927" y1="15.1017" x2="42.2537" y2="13.1759" stroke-width="0.5" stroke="rgb(255,0,0)" />
	<line x1="8.11927" y1="15.1017" x2="42.7845" y2="16.1349" stroke-width="0.5" stroke="rgb(255,0,0)" />
	<line x1="8.11927" y1="15.1017" x2="43.335" y2="19.2035" stroke-width="0.5" stroke="rgb(255,0,0)" />
	<line x1="8.11927" y1="15.1017" x2="43.915" y2="22.4365" stroke-width="0.5" stroke="rgb(255,0,0)" />
	<line x1="8.11927" y1="15.1017" x2="44.5364" y2="25.9003" stroke-width="0.5" stroke="rgb(255,0,0)" />
	<line x1="8.11927" y1="15.1017" x2="45.2141" y2="29.6785" stroke-width="0.5" stroke="rgb(255,0,0)" />
	<line x1="8.11927" y1="15.1017" x2="45.968" y2="33.8811" stroke-width="0.5" stroke="rgb(255,0,0)" />
	<line x1="8.11927" y1="15.1017" x2="46.8251" y2="38.6589" stroke-width="0.5" stroke="rgb(255,0,0)" />
	<line x1="8.11927" y1="15.1017" x2="47.824" y2="44.2271" stroke-width="0.5" stroke="rgb(255,0,0)" />
	<line x1="8.11927" y1="15.1017" x2="44.9808" y2="47.3696" stroke-width="0.5" stroke="rgb(255,0,0)" />
	<line x1="8.11927" y1="15.1017" x2="37.074" y2="45.2266" stroke-width="0.5" stroke="rgb(255,0,0)" />
	<line x1="8.11927" y1="15.1017" x2="31.1567" y2="43.6229" stroke-width="0.5" stroke="rgb(255,0,0)" />
	<line x1="8.11927" y1="15.1017" x2="26.5007" y2="42.361" stroke-width="0.5" stroke="rgb(255,0,0)" />
	<line x1="8.11927" y1="15.1017" x2="22.6905" y2="41.3283" stroke-width="0.5" stroke="rgb(255,0,0)" />
	<line x1="8.11927" y1="15.1017" x2="19.4712" y2="40.4558" stroke-width="0.5" stroke="rgb(255,0,0)" />
	<line x1="8.11927" y1="15.1017" x2="16.6768" y2="39.6984" stroke-width="0.5" stroke="rgb(255,0,0)" />
	<line x1="8.11927" y1="15.1017" x2="14.1938" y2="39.0255" stroke-width="0.5" stroke="rgb(255,0,0)" />
	<line x1="8.11927" y1="15.1017" x2="11.9414" y2="38.415" stroke-width="0.5" stroke="rgb(255,0,0)" />
	<line x1="8.11927" y1="15.1017" x2="9.85943" y2="37.8507" stroke-width="0.5" stroke="rgb(255,0,0)" />
	<line x1="8.11927" y1="15.1017" x2="7.90128" y2="37.32" stroke-width="0.5" stroke="rgb(255,0,0)" />
</g>

</svg>
