<?xml version="1.0" standalone="no" ?>
<!DOCTYPE svg PUBLIC "-//W3C//DTD SVG 1.1//EN" "http://www.w3.org/Graphics/SVG/1.1/DTD/svg11.dtd">
<svg width="511px" height="454px" viewBox="-48.698182 -38.420067 97.260038 86.760225" xmlns="http://www.w3.org/2000/svg" version="1.1" >
<g transform="scale(1 -1) translate(0 -9.920091)" >
	<polygon points="-36.0883,-7.54524 -41.3996,-10.8992 -42.3583,-21.9762 -48.6982,-38.4201 41.6416,-37.633 39.3341,-3.0995 48.5619,48.3402 6.02932,36.8127 8.11927,15.1017 -2.98722,31.1052 -0.817857,42.3686 -8.74098,46.1829 -21.7695,17.4032 -11.7715,40.0774 -25.9785,41.0849 -32.3518,47.8067 -33.7105,5.05481 -36.318,-2.90722 17.0732,4.44339 17.598,4.12694 7.06644,-9.56509 0.590474,-6.134 -9.4107,-8.09906 -19.8125,-11.9359 -24.0575,-8.87829 " fill="none" opacity="1" stroke-width="0.1" stroke="rgb(0,0,0)" />
	<line x1="6.02932" y1="36.8127" x2="12.1435" y2="3.76471" stroke-width="0.5" stroke="rgb(255,0,0)" />
	<line x1="6.02932" y1="36.8127" x2="15.0615" y2="4.16644" stroke-width="0.5" stroke="rgb(255,0,0)" />
	<line x1="6.02932" y1="36.8127" x2="33.8124" y2="-37.7012" stroke-width="0.5" stroke="rgb(255,0,0)" />
	<line x1="6.02932" y1="36.8127" x2="41.43" y2="-37.6348" stroke-width="0.5" stroke="rgb(255,0,0)" />
	<line x1="6.02932" y1="36.8127" x2="40.6024" y2="-22.0804" stroke-width="0.5" stroke="rgb(255,0,0)" />
	<line x1="6.02932" y1="36.8127" x2="39.847" y2="-10.7765" stroke-width="0.5" stroke="rgb(255,0,0)" />
	<line x1="6.02932" y1="36.8127" x2="39.4457" y2="-2.47707" stroke-width="0.5" stroke="rgb(255,0,0)" />
	<line x1="6.02932" y1="36.8127" x2="40.4053" y2="2.87178" stroke-width="0.5" stroke="rgb(255,0,0)" />
	<line x1="6.02932" y1="36.8127" x2="41.2564" y2="7.61655" stroke-width="0.5" stroke="rgb(255,0,0)" />
	<line x1="6.02932" y1="36.8127" x2="42.0276" y2="11.9155" stroke-width="0.5" stroke="rgb(255,0,0)" />
	<line x1="6.02932" y1="36.8127" x2="42.7399" y2="15.8859" stroke-width="0.5" stroke="rgb(255,0,0)" />
	<line x1="6.02932" y1="36.8127" x2="43.4094" y2="19.6182" stroke-width="0.5" stroke="rgb(255,0,0)" />
	<line x1="6.02932" y1="36.8127" x2="44.0494" y2="23.1856" stroke-width="0.5" stroke="rgb(255,0,0)" />
	<line x1="6.02932" y1="36.8127" x2="44.6708" y2="26.6498" stroke-width="0.5" stroke="rgb(255,0,0)" />
	<line x1="6.02932" y1="36.8127" x2="45.2837" y2="30.0661" stroke-width="0.5" stroke="rgb(255,0,0)" />
	<line x1="6.02932" y1="36.8127" x2="45.8973" y2="33.4867" stroke-width="0.5" stroke="rgb(255,0,0)" />
	<line x1="6.02932" y1="36.8127" x2="46.5211" y2="36.9643" stroke-width="0.5" stroke="rgb(255,0,0)" />
	<line x1="6.02932" y1="36.8127" x2="47.1652" y2="40.5548" stroke-width="0.5" stroke="rgb(255,0,0)" />
	<line x1="6.02932" y1="36.8127" x2="47.841" y2="44.3216" stroke-width="0.5" stroke="rgb(255,0,0)" />
</g>

</svg>
