<?xml version="1.0" standalone="no" ?>
<!DOCTYPE svg PUBLIC "-//W3C//DTD SVG 1.1//EN" "http://www.w3.org/Graphics/SVG/1.1/DTD/svg11.dtd">
<svg width="511px" height="454px" viewBox="-48.698182 -38.420067 97.260038 86.760225" xmlns="http://www.w3.org/2000/svg" version="1.1" >
<g transform="scale(1 -1) translate(0 -9.920091)" >
	<polygon points="-36.0883,-7.54524 -41.3996,-10.8992 -42.3583,-21.9762 -48.6982,-38.4201 41.6416,-37.633 39.3341,-3.0995 48.5619,48.3402 6.02932,36.8127 8.11927,15.1017 -2.98722,31.1052 -0.817857,42.3686 -8.74098,46.1829 -21.7695,17.4032 -11.7715,40.0774 -25.9785,41.0849 -32.3518,47.8067 -33.7105,5.05481 -36.318,-2.90722 17.0732,4.44339 17.598,4.12694 7.06644,-9.56509 0.590474,-6.134 -9.4107,-8.09906 -19.8125,-11.9359 -24.0575,-8.87829 " fill="none" opacity="1" stroke-width="0.1" stroke="rgb(0,0,0)" />
	<line x1="17.0732" y1="4.44339" x2="39.5667" y2="-6.58169" stroke-width="0.5" stroke="rgb(255,0,0)" />
	<line x1="17.0732" y1="4.44339" x2="39.407" y2="-4.19059" stroke-width="0.5" stroke="rgb(255,0,0)" />
	<line x1="17.0732" y1="4.44339" x2="39.5203" y2="-2.06125" stroke-width="0.5" stroke="rgb(255,0,0)" />
	<line x1="17.0732" y1="4.44339" x2="39.8783" y2="-0.0658223" stroke-width="0.5" stroke="rgb(255,0,0)" />
	<line x1="17.0732" y1="4.44339" x2="40.2351" y2="1.92346" stroke-width="0.5" stroke="rgb(255,0,0)" />
	<line x1="17.0732" y1="4.44339" x2="40.5963" y2="3.93688" stroke-width="0.5" stroke="rgb(255,0,0)" />
	<line x1="17.0732" y1="4.44339" x2="40.9675" y2="6.00618" stroke-width="0.5" stroke="rgb(255,0,0)" />
	<line x1="17.0732" y1="4.44339" x2="41.3551" y2="8.1667" stroke-width="0.5" stroke="rgb(255,0,0)" />
	<line x1="17.0732" y1="4.44339" x2="41.7665" y2="10.4599" stroke-width="0.5" stroke="rgb(255,0,0)" />
	<line x1="17.0732" y1="4.44339" x2="42.2108" y2="12.9368" stroke-width="0.5" stroke="rgb(255,0,0)" />
	<line x1="17.0732" y1="4.44339" x2="42.6999" y2="15.6631" stroke-width="0.5" stroke="rgb(255,0,0)" />
	<line x1="17.0732" y1="4.44339" x2="43.2495" y2="18.7271" stroke-width="0.5" stroke="rgb(255,0,0)" />
	<line x1="17.0732" y1="4.44339" x2="43.8819" y2="22.2521" stroke-width="0.5" stroke="rgb(255,0,0)" />
	<line x1="17.0732" y1="4.44339" x2="44.6293" y2="26.4185" stroke-width="0.5" stroke="rgb(255,0,0)" />
	<line x1="17.0732" y1="4.44339" x2="45.5414" y2="31.503" stroke-width="0.5" stroke="rgb(255,0,0)" />
	<line x1="17.0732" y1="4.44339" x2="46.699" y2="37.9556" stroke-width="0.5" stroke="rgb(255,0,0)" />
	<line x1="17.0732" y1="4.44339" x2="48.2433" y2="46.5642" stroke-width="0.5" stroke="rgb(255,0,0)" />
	<line x1="17.0732" y1="4.44339" x2="43.0915" y2="46.8576" stroke-width="0.5" stroke="rgb(255,0,0)" />
	<line x1="17.0732" y1="4.44339" x2="37.5114" y2="45.3452" stroke-width="0.5" stroke="rgb(255,0,0)" />
	<line x1="17.0732" y1="4.44339" x2="32.735" y2="44.0506" stroke-width="0.5" stroke="rgb(255,0,0)" />
	<line x1="17.0732" y1="4.44339" x2="28.5415" y2="42.9141" stroke-width="0.5" stroke="rgb(255,0,0)" />
	<line x1="17.0732" y1="4.44339" x2="24.777" y2="41.8938" stroke-width="0.5" stroke="rgb(255,0,0)" />
	<line x1="17.0732" y1="4.44339" x2="21.3295" y2="40.9594" stroke-width="0.5" stroke="rgb(255,0,0)" />
	<line x1="17.0732" y1="4.44339" x2="18.1142" y2="40.088" stroke-width="0.5" stroke="rgb(255,0,0)" />
	<line x1="17.0732" y1="4.44339" x2="15.0639" y2="39.2613" stroke-width="0.5" stroke="rgb(255,0,0)" />
	<line x1="17.0732" y1="4.44339" x2="12.1232" y2="38.4643" stroke-width="0.5" stroke="rgb(255,0,0)" />
	<line x1="17.0732" y1="4.44339" x2="9.24372" y2="37.6838" stroke-width="0.5" stroke="rgb(255,0,0)" />
	<line x1="17.0732" y1="4.44339" x2="6.38087" y2="36.9079" stroke-width="0.5" stroke="rgb(255,0,0)" />
	<line x1="17.0732" y1="4.44339" x2="6.84965" y2="28.2908" stroke-width="0.5" stroke="rgb(255,0,0)" />
	<line x1="17.0732" y1="4.44339" x2="7.40883" y2="22.4819" stroke-width="0.5" stroke="rgb(255,0,0)" />
	<line x1="17.0732" y1="4.44339" x2="7.77521" y2="18.6759" stroke-width="0.5" stroke="rgb(255,0,0)" />
	<line x1="17.0732" y1="4.44339" x2="8.0372" y2="15.9542" stroke-width="0.5" stroke="rgb(255,0,0)" />
	<line x1="17.0732" y1="4.44339" x2="-13.0619" y2="36.6381" stroke-width="0.5" stroke="rgb(255,0,0)" />
	<line x1="17.0732" y1="4.44339" x2="-14.7163" y2="32.9835" stroke-width="0.5" stroke="rgb(255,0,0)" />
	<line x1="17.0732" y1="4.44339" x2="-16.282" y2="29.5249" stroke-width="0.5" stroke="rgb(255,0,0)" />
	<line x1="17.0732" y1="4.44339" x2="-17.788" y2="26.1982" stroke-width="0.5" stroke="rgb(255,0,0)" />
	<line x1="17.0732" y1="4.44339" x2="-19.2594" y2="22.948" stroke-width="0.5" stroke="rgb(255,0,0)" />
	<line x1="17.0732" y1="4.44339" x2="-20.719" y2="19.7237" stroke-width="0.5" stroke="rgb(255,0,0)" />
	<line x1="17.0732" y1="4.44339" x2="-33.2399" y2="19.8631" stroke-width="0.5" stroke="rgb(255,0,0)" />
	<line x1="17.0732" y1="4.44339" x2="-33.3872" y2="15.2275" stroke-width="0.5" stroke="rgb(255,0,0)" />
	<line x1="17.0732" y1="4.44339" x2="-33.53" y2="10.7355" stroke-width="0.5" stroke="rgb(255,0,0)" />
	<line x1="17.0732" y1="4.44339" x2="-33.6705" y2="6.31496" stroke-width="0.5" stroke="rgb(255,0,0)" />
	<line x1="17.0732" y1="4.44339" x2="-34.7597" y2="1.85092" stroke-width="0.5" stroke="rgb(255,0,0)" />
</g>

</svg>
