<?xml version="1.0" standalone="no" ?>
<!DOCTYPE svg PUBLIC "-//W3C//DTD SVG 1.1//EN" "http://www.w3.org/Graphics/SVG/1.1/DTD/svg11.dtd">
<svg width="511px" height="454px" viewBox="-48.698182 -38.420067 97.260038 86.760225" xmlns="http://www.w3.org/2000/svg" version="1.1" >
<g transform="scale(1 -1) translate(0 -9.920091)" >
	<polygon points="-36.0883,-7.54524 -41.3996,-10.8992 -42.3583,-21.9762 -48.6982,-38.4201 41.6416,-37.633 39.3341,-3.0995 48.5619,48.3402 6.02932,36.8127 8.11927,15.1017 -2.98722,31.1052 -0.817857,42.3686 -8.74098,46.1829 -21.7695,17.4032 -11.7715,40.0774 -25.9785,41.0849 -32.3518,47.8067 -33.7105,5.05481 -36.318,-2.90722 17.0732,4.44339 17.598,4.12694 7.06644,-9.56509 0.590474,-6.134 -9.4107,-8.09906 -19.8125,-11.9359 -24.0575,-8.87829 " fill="none" opacity="1" stroke-width="0.1" stroke="rgb(0,0,0)" />
	<line x1="7.06644" y1="-9.56509" x2="-0.507343" y2="-6.3497" stroke-width="0.5" stroke="rgb(255,0,0)" />
	<line x1="7.06644" y1="-9.56509" x2="-1.92413" y2="-6.62808" stroke-width="0.5" stroke="rgb(255,0,0)" />
	<line x1="7.06644" y1="-9.56509" x2="-3.85569" y2="-7.0076" stroke-width="0.5" stroke="rgb(255,0,0)" />
	<line x1="7.06644" y1="-9.56509" x2="-6.69573" y2="-7.56562" stroke-width="0.5" stroke="rgb(255,0,0)" />
	<line x1="7.06644" y1="-9.56509" x2="-10.5811" y2="-8.53077" stroke-width="0.5" stroke="rgb(255,0,0)" />
	<line x1="7.06644" y1="-9.56509" x2="-15.0132" y2="-10.1656" stroke-width="0.5" stroke="rgb(255,0,0)" />
	<line x1="7.06644" y1="-9.56509" x2="-41.7635" y2="-15.1028" stroke-width="0.5" stroke="rgb(255,0,0)" />
	<line x1="7.06644" y1="-9.56509" x2="-42.1416" y2="-19.4715" stroke-width="0.5" stroke="rgb(255,0,0)" />
	<line x1="7.06644" y1="-9.56509" x2="-43.2433" y2="-24.2716" stroke-width="0.5" stroke="rgb(255,0,0)" />
	<line x1="7.06644" y1="-9.56509" x2="-45.426" y2="-29.9329" stroke-width="0.5" stroke="rgb(255,0,0)" />
	<line x1="7.06644" y1="-9.56509" x2="-47.9789" y2="-36.5544" stroke-width="0.5" stroke="rgb(255,0,0)" />
	<line x1="7.06644" y1="-9.56509" x2="-40.7821" y2="-38.3511" stroke-width="0.5" stroke="rgb(255,0,0)" />
	<line x1="7.06644" y1="-9.56509" x2="-32.5371" y2="-38.2793" stroke-width="0.5" stroke="rgb(255,0,0)" />
	<line x1="7.06644" y1="-9.56509" x2="-26.0685" y2="-38.2229" stroke-width="0.5" stroke="rgb(255,0,0)" />
	<line x1="7.06644" y1="-9.56509" x2="-20.7883" y2="-38.1769" stroke-width="0.5" stroke="rgb(255,0,0)" />
	<line x1="7.06644" y1="-9.56509" x2="-16.3366" y2="-38.1381" stroke-width="0.5" stroke="rgb(255,0,0)" />
	<line x1="7.06644" y1="-9.56509" x2="-12.4803" y2="-38.1045" stroke-width="0.5" stroke="rgb(255,0,0)" />
	<line x1="7.06644" y1="-9.56509" x2="-9.06033" y2="-38.0747" stroke-width="0.5" stroke="rgb(255,0,0)" />
	<line x1="7.06644" y1="-9.56509" x2="-5.96364" y2="-38.0478" stroke-width="0.5" stroke="rgb(255,0,0)" />
	<line x1="7.06644" y1="-9.56509" x2="-3.10646" y2="-38.0229" stroke-width="0.5" stroke="rgb(255,0,0)" />
	<line x1="7.06644" y1="-9.56509" x2="-0.424163" y2="-37.9995" stroke-width="0.5" stroke="rgb(255,0,0)" />
	<line x1="7.06644" y1="-9.56509" x2="2.13525" y2="-37.9772" stroke-width="0.5" stroke="rgb(255,0,0)" />
	<line x1="7.06644" y1="-9.56509" x2="4.61559" y2="-37.9556" stroke-width="0.5" stroke="rgb(255,0,0)" />
	<line x1="7.06644" y1="-9.56509" x2="7.05572" y2="-37.9343" stroke-width="0.5" stroke="rgb(255,0,0)" />
	<line x1="7.06644" y1="-9.56509" x2="9.49203" y2="-37.9131" stroke-width="0.5" stroke="rgb(255,0,0)" />
	<line x1="7.06644" y1="-9.56509" x2="11.9607" y2="-37.8916" stroke-width="0.5" stroke="rgb(255,0,0)" />
	<line x1="7.06644" y1="-9.56509" x2="14.4999" y2="-37.8695" stroke-width="0.5" stroke="rgb(255,0,0)" />
	<line x1="7.06644" y1="-9.56509" x2="17.1521" y2="-37.8464" stroke-width="0.5" stroke="rgb(255,0,0)" />
	<line x1="7.06644" y1="-9.56509" x2="19.9673" y2="-37.8218" stroke-width="0.5" stroke="rgb(255,0,0)" />
	<line x1="7.06644" y1="-9.56509" x2="23.007" y2="-37.7953" stroke-width="0.5" stroke="rgb(255,0,0)" />
	<line x1="7.06644" y1="-9.56509" x2="26.3502" y2="-37.7662" stroke-width="0.5" stroke="rgb(255,0,0)" />
	<line x1="7.06644" y1="-9.56509" x2="30.1026" y2="-37.7335" stroke-width="0.5" stroke="rgb(255,0,0)" />
	<line x1="7.06644" y1="-9.56509" x2="34.4116" y2="-37.696" stroke-width="0.5" stroke="rgb(255,0,0)" />
	<line x1="7.06644" y1="-9.56509" x2="39.4914" y2="-37.6517" stroke-width="0.5" stroke="rgb(255,0,0)" />
	<line x1="7.06644" y1="-9.56509" x2="41.4338" y2="-34.5225" stroke-width="0.5" stroke="rgb(255,0,0)" />
	<line x1="7.06644" y1="-9.56509" x2="41.1381" y2="-30.098" stroke-width="0.5" stroke="rgb(255,0,0)" />
	<line x1="7.06644" y1="-9.56509" x2="40.8759" y2="-26.1739" stroke-width="0.5" stroke="rgb(255,0,0)" />
	<line x1="7.06644" y1="-9.56509" x2="40.6385" y2="-22.6207" stroke-width="0.5" stroke="rgb(255,0,0)" />
	<line x1="7.06644" y1="-9.56509" x2="40.4194" y2="-19.3422" stroke-width="0.5" stroke="rgb(255,0,0)" />
	<line x1="7.06644" y1="-9.56509" x2="40.2137" y2="-16.2643" stroke-width="0.5" stroke="rgb(255,0,0)" />
	<line x1="7.06644" y1="-9.56509" x2="40.0175" y2="-13.3273" stroke-width="0.5" stroke="rgb(255,0,0)" />
	<line x1="7.06644" y1="-9.56509" x2="39.8273" y2="-10.4809" stroke-width="0.5" stroke="rgb(255,0,0)" />
	<line x1="7.06644" y1="-9.56509" x2="39.6402" y2="-7.68065" stroke-width="0.5" stroke="rgb(255,0,0)" />
	<line x1="7.06644" y1="-9.56509" x2="39.4533" y2="-4.88468" stroke-width="0.5" stroke="rgb(255,0,0)" />
	<line x1="7.06644" y1="-9.56509" x2="39.5333" y2="-1.98863" stroke-width="0.5" stroke="rgb(255,0,0)" />
	<line x1="7.06644" y1="-9.56509" x2="40.1054" y2="1.20034" stroke-width="0.5" stroke="rgb(255,0,0)" />
	<line x1="7.06644" y1="-9.56509" x2="40.7328" y2="4.69766" stroke-width="0.5" stroke="rgb(255,0,0)" />
	<line x1="7.06644" y1="-9.56509" x2="41.4347" y2="8.61063" stroke-width="0.5" stroke="rgb(255,0,0)" />
	<line x1="7.06644" y1="-9.56509" x2="42.2379" y2="13.0879" stroke-width="0.5" stroke="rgb(255,0,0)" />
	<line x1="7.06644" y1="-9.56509" x2="43.1808" y2="18.3439" stroke-width="0.5" stroke="rgb(255,0,0)" />
	<line x1="7.06644" y1="-9.56509" x2="44.3217" y2="24.7035" stroke-width="0.5" stroke="rgb(255,0,0)" />
	<line x1="7.06644" y1="-9.56509" x2="45.7536" y2="32.6859" stroke-width="0.5" stroke="rgb(255,0,0)" />
</g>

</svg>
