<?xml version="1.0" standalone="no" ?>
<!DOCTYPE svg PUBLIC "-//W3C//DTD SVG 1.1//EN" "http://www.w3.org/Graphics/SVG/1.1/DTD/svg11.dtd">
<svg width="511px" height="454px" viewBox="-48.698182 -38.420067 97.260038 86.760225" xmlns="http://www.w3.org/2000/svg" version="1.1" >
<g transform="scale(1 -1) translate(0 -9.920091)" >
	<polygon points="-36.0883,-7.54524 -41.3996,-10.8992 -42.3583,-21.9762 -48.6982,-38.4201 41.6416,-37.633 39.3341,-3.0995 48.5619,48.3402 6.02932,36.8127 8.11927,15.1017 -2.98722,31.1052 -0.817857,42.3686 -8.74098,46.1829 -21.7695,17.4032 -11.7715,40.0774 -25.9785,41.0849 -32.3518,47.8067 -33.7105,5.05481 -36.318,-2.90722 17.0732,4.44339 17.598,4.12694 7.06644,-9.56509 0.590474,-6.134 -9.4107,-8.09906 -19.8125,-11.9359 -24.0575,-8.87829 " fill="none" opacity="1" stroke-width="0.1" stroke="rgb(0,0,0)" />
	<line x1="-42.3583" y1="-21.9762" x2="-47.1257" y2="-38.4064" stroke-width="0.5" stroke="rgb(255,0,0)" />
	<line x1="-42.3583" y1="-21.9762" x2="-45.632" y2="-38.3934" stroke-width="0.5" stroke="rgb(255,0,0)" />
	<line x1="-42.3583" y1="-21.9762" x2="-44.1907" y2="-38.3808" stroke-width="0.5" stroke="rgb(255,0,0)" />
	<line x1="-42.3583" y1="-21.9762" x2="-42.779" y2="-38.3685" stroke-width="0.5" stroke="rgb(255,0,0)" />
	<line x1="-42.3583" y1="-21.9762" x2="-41.3756" y2="-38.3563" stroke-width="0.5" stroke="rgb(255,0,0)" />
	<line x1="-42.3583" y1="-21.9762" x2="-39.9598" y2="-38.3439" stroke-width="0.5" stroke="rgb(255,0,0)" />
	<line x1="-42.3583" y1="-21.9762" x2="-38.5102" y2="-38.3313" stroke-width="0.5" stroke="rgb(255,0,0)" />
	<line x1="-42.3583" y1="-21.9762" x2="-37.0032" y2="-38.3182" stroke-width="0.5" stroke="rgb(255,0,0)" />
	<line x1="-42.3583" y1="-21.9762" x2="-35.4116" y2="-38.3043" stroke-width="0.5" stroke="rgb(255,0,0)" />
	<line x1="-42.3583" y1="-21.9762" x2="-33.7025" y2="-38.2894" stroke-width="0.5" stroke="rgb(255,0,0)" />
	<line x1="-42.3583" y1="-21.9762" x2="-31.8339" y2="-38.2731" stroke-width="0.5" stroke="rgb(255,0,0)" />
	<line x1="-42.3583" y1="-21.9762" x2="-29.7506" y2="-38.255" stroke-width="0.5" stroke="rgb(255,0,0)" />
	<line x1="-42.3583" y1="-21.9762" x2="-27.3763" y2="-38.2343" stroke-width="0.5" stroke="rgb(255,0,0)" />
	<line x1="-42.3583" y1="-21.9762" x2="-24.6021" y2="-38.2101" stroke-width="0.5" stroke="rgb(255,0,0)" />
	<line x1="-42.3583" y1="-21.9762" x2="-21.2644" y2="-38.1811" stroke-width="0.5" stroke="rgb(255,0,0)" />
	<line x1="-42.3583" y1="-21.9762" x2="-17.1042" y2="-38.1448" stroke-width="0.5" stroke="rgb(255,0,0)" />
	<line x1="-42.3583" y1="-21.9762" x2="-11.6847" y2="-38.0976" stroke-width="0.5" stroke="rgb(255,0,0)" />
	<line x1="-42.3583" y1="-21.9762" x2="-4.20311" y2="-38.0324" stroke-width="0.5" stroke="rgb(255,0,0)" />
	<line x1="-42.3583" y1="-21.9762" x2="6.9959" y2="-37.9348" stroke-width="0.5" stroke="rgb(255,0,0)" />
	<line x1="-42.3583" y1="-21.9762" x2="25.9678" y2="-37.7696" stroke-width="0.5" stroke="rgb(255,0,0)" />
	<line x1="-42.3583" y1="-21.9762" x2="41.393" y2="-33.9133" stroke-width="0.5" stroke="rgb(255,0,0)" />
	<line x1="-42.3583" y1="-21.9762" x2="40.9073" y2="-26.6435" stroke-width="0.5" stroke="rgb(255,0,0)" />
	<line x1="-42.3583" y1="-21.9762" x2="40.4317" y2="-19.5261" stroke-width="0.5" stroke="rgb(255,0,0)" />
	<line x1="-42.3583" y1="-21.9762" x2="39.9591" y2="-12.4538" stroke-width="0.5" stroke="rgb(255,0,0)" />
	<line x1="-42.3583" y1="-21.9762" x2="39.4826" y2="-5.32248" stroke-width="0.5" stroke="rgb(255,0,0)" />
	<line x1="-42.3583" y1="-21.9762" x2="4.46947" y2="-8.18917" stroke-width="0.5" stroke="rgb(255,0,0)" />
	<line x1="-42.3583" y1="-21.9762" x2="-4.1132" y2="-7.0582" stroke-width="0.5" stroke="rgb(255,0,0)" />
	<line x1="-42.3583" y1="-21.9762" x2="-20.6864" y2="-11.3064" stroke-width="0.5" stroke="rgb(255,0,0)" />
	<line x1="-42.3583" y1="-21.9762" x2="-22.5081" y2="-9.99429" stroke-width="0.5" stroke="rgb(255,0,0)" />
	<line x1="-42.3583" y1="-21.9762" x2="-24.3055" y2="-8.8508" stroke-width="0.5" stroke="rgb(255,0,0)" />
	<line x1="-42.3583" y1="-21.9762" x2="-26.888" y2="-8.56466" stroke-width="0.5" stroke="rgb(255,0,0)" />
	<line x1="-42.3583" y1="-21.9762" x2="-29.0909" y2="-8.32057" stroke-width="0.5" stroke="rgb(255,0,0)" />
	<line x1="-42.3583" y1="-21.9762" x2="-31.0185" y2="-8.10699" stroke-width="0.5" stroke="rgb(255,0,0)" />
	<line x1="-42.3583" y1="-21.9762" x2="-32.7429" y2="-7.91591" stroke-width="0.5" stroke="rgb(255,0,0)" />
	<line x1="-42.3583" y1="-21.9762" x2="-34.3167" y2="-7.74154" stroke-width="0.5" stroke="rgb(255,0,0)" />
	<line x1="-42.3583" y1="-21.9762" x2="-35.7791" y2="-7.5795" stroke-width="0.5" stroke="rgb(255,0,0)" />
	<line x1="-42.3583" y1="-21.9762" x2="-37.5284" y2="-8.45466" stroke-width="0.5" stroke="rgb(255,0,0)" />
	<line x1="-42.3583" y1="-21.9762" x2="-39.0507" y2="-9.41593" stroke-width="0.5" stroke="rgb(255,0,0)" />
	<line x1="-42.3583" y1="-21.9762" x2="-40.3163" y2="-10.2151" stroke-width="0.5" stroke="rgb(255,0,0)" />
</g>

</svg>
