<?xml version="1.0" standalone="no" ?>
<!DOCTYPE svg PUBLIC "-//W3C//DTD SVG 1.1//EN" "http://www.w3.org/Graphics/SVG/1.1/DTD/svg11.dtd">
<svg width="511px" height="454px" viewBox="-48.698182 -38.420067 97.260038 86.760225" xmlns="http://www.w3.org/2000/svg" version="1.1" >
<g transform="scale(1 -1) translate(0 -9.920091)" >
	<polygon points="-36.0883,-7.54524 -41.3996,-10.8992 -42.3583,-21.9762 -48.6982,-38.4201 41.6416,-37.633 39.3341,-3.0995 48.5619,48.3402 6.02932,36.8127 8.11927,15.1017 -2.98722,31.1052 -0.817857,42.3686 -8.74098,46.1829 -21.7695,17.4032 -11.7715,40.0774 -25.9785,41.0849 -32.3518,47.8067 -33.7105,5.05481 -36.318,-2.90722 17.0732,4.44339 17.598,4.12694 7.06644,-9.56509 0.590474,-6.134 -9.4107,-8.09906 -19.8125,-11.9359 -24.0575,-8.87829 " fill="none" opacity="1" stroke-width="0.1" stroke="rgb(0,0,0)" />
	<line x1="-48.6982" y1="-38.4201" x2="41.1283" y2="-29.951" stroke-width="0.5" stroke="rgb(255,0,0)" />
	<line x1="-48.6982" y1="-38.4201" x2="40.6126" y2="-22.233" stroke-width="0.5" stroke="rgb(255,0,0)" />
	<line x1="-48.6982" y1="-38.4201" x2="40.0868" y2="-14.3643" stroke-width="0.5" stroke="rgb(255,0,0)" />
	<line x1="-48.6982" y1="-38.4201" x2="39.5427" y2="-6.22123" stroke-width="0.5" stroke="rgb(255,0,0)" />
	<line x1="-48.6982" y1="-38.4201" x2="40.4312" y2="3.01637" stroke-width="0.5" stroke="rgb(255,0,0)" />
	<line x1="-48.6982" y1="-38.4201" x2="4.24819" y2="-8.07193" stroke-width="0.5" stroke="rgb(255,0,0)" />
	<line x1="-48.6982" y1="-38.4201" x2="-3.14387" y2="-6.86774" stroke-width="0.5" stroke="rgb(255,0,0)" />
	<line x1="-48.6982" y1="-38.4201" x2="-14.1553" y2="-9.84917" stroke-width="0.5" stroke="rgb(255,0,0)" />
	<line x1="-48.6982" y1="-38.4201" x2="-20.9189" y2="-11.139" stroke-width="0.5" stroke="rgb(255,0,0)" />
	<line x1="-48.6982" y1="-38.4201" x2="-23.62" y2="-9.1934" stroke-width="0.5" stroke="rgb(255,0,0)" />
	<line x1="-48.6982" y1="-38.4201" x2="-27.1859" y2="-8.53165" stroke-width="0.5" stroke="rgb(255,0,0)" />
	<line x1="-48.6982" y1="-38.4201" x2="-30.6134" y2="-8.15187" stroke-width="0.5" stroke="rgb(255,0,0)" />
	<line x1="-48.6982" y1="-38.4201" x2="-33.7834" y2="-7.80062" stroke-width="0.5" stroke="rgb(255,0,0)" />
</g>

</svg>
