<?xml version="1.0" standalone="no" ?>
<!DOCTYPE svg PUBLIC "-//W3C//DTD SVG 1.1//EN" "http://www.w3.org/Graphics/SVG/1.1/DTD/svg11.dtd">
<svg width="511px" height="454px" viewBox="-48.698182 -38.420067 97.260038 86.760225" xmlns="http://www.w3.org/2000/svg" version="1.1" >
<g transform="scale(1 -1) translate(0 -9.920091)" >
	<polygon points="-36.0883,-7.54524 -41.3996,-10.8992 -42.3583,-21.9762 -48.6982,-38.4201 41.6416,-37.633 39.3341,-3.0995 48.5619,48.3402 6.02932,36.8127 8.11927,15.1017 -2.98722,31.1052 -0.817857,42.3686 -8.74098,46.1829 -21.7695,17.4032 -11.7715,40.0774 -25.9785,41.0849 -32.3518,47.8067 -33.7105,5.05481 -36.318,-2.90722 17.0732,4.44339 17.598,4.12694 7.06644,-9.56509 0.590474,-6.134 -9.4107,-8.09906 -19.8125,-11.9359 -24.0575,-8.87829 " fill="none" opacity="1" stroke-width="0.1" stroke="rgb(0,0,0)" />
	<line x1="39.3341" y1="-3.0995" x2="43.8968" y2="47.0758" stroke-width="0.5" stroke="rgb(255,0,0)" />
	<line x1="39.3341" y1="-3.0995" x2="39.5237" y2="45.8906" stroke-width="0.5" stroke="rgb(255,0,0)" />
	<line x1="39.3341" y1="-3.0995" x2="35.3552" y2="44.7608" stroke-width="0.5" stroke="rgb(255,0,0)" />
	<line x1="39.3341" y1="-3.0995" x2="31.3179" y2="43.6666" stroke-width="0.5" stroke="rgb(255,0,0)" />
	<line x1="39.3341" y1="-3.0995" x2="27.3469" y2="42.5903" stroke-width="0.5" stroke="rgb(255,0,0)" />
	<line x1="39.3341" y1="-3.0995" x2="23.3816" y2="41.5156" stroke-width="0.5" stroke="rgb(255,0,0)" />
	<line x1="39.3341" y1="-3.0995" x2="19.3614" y2="40.426" stroke-width="0.5" stroke="rgb(255,0,0)" />
	<line x1="39.3341" y1="-3.0995" x2="15.2226" y2="39.3043" stroke-width="0.5" stroke="rgb(255,0,0)" />
	<line x1="39.3341" y1="-3.0995" x2="10.8937" y2="38.131" stroke-width="0.5" stroke="rgb(255,0,0)" />
	<line x1="39.3341" y1="-3.0995" x2="6.2906" y2="36.8835" stroke-width="0.5" stroke="rgb(255,0,0)" />
	<line x1="39.3341" y1="-3.0995" x2="6.67753" y2="30.0789" stroke-width="0.5" stroke="rgb(255,0,0)" />
	<line x1="39.3341" y1="-3.0995" x2="7.2341" y2="24.2971" stroke-width="0.5" stroke="rgb(255,0,0)" />
	<line x1="39.3341" y1="-3.0995" x2="7.6987" y2="19.4706" stroke-width="0.5" stroke="rgb(255,0,0)" />
	<line x1="39.3341" y1="-3.0995" x2="8.09794" y2="15.3232" stroke-width="0.5" stroke="rgb(255,0,0)" />
	<line x1="39.3341" y1="-3.0995" x2="-18.5254" y2="24.5693" stroke-width="0.5" stroke="rgb(255,0,0)" />
	<line x1="39.3341" y1="-3.0995" x2="-20.8238" y2="19.4923" stroke-width="0.5" stroke="rgb(255,0,0)" />
	<line x1="39.3341" y1="-3.0995" x2="16.8675" y2="3.17714" stroke-width="0.5" stroke="rgb(255,0,0)" />
	<line x1="39.3341" y1="-3.0995" x2="15.4843" y2="1.37891" stroke-width="0.5" stroke="rgb(255,0,0)" />
	<line x1="39.3341" y1="-3.0995" x2="13.9732" y2="-0.585691" stroke-width="0.5" stroke="rgb(255,0,0)" />
	<line x1="39.3341" y1="-3.0995" x2="12.2889" y2="-2.7754" stroke-width="0.5" stroke="rgb(255,0,0)" />
	<line x1="39.3341" y1="-3.0995" x2="10.3693" y2="-5.27107" stroke-width="0.5" stroke="rgb(255,0,0)" />
	<line x1="39.3341" y1="-3.0995" x2="8.12505" y2="-8.1888" stroke-width="0.5" stroke="rgb(255,0,0)" />
	<line x1="39.3341" y1="-3.0995" x2="-43.1486" y2="-24.0259" stroke-width="0.5" stroke="rgb(255,0,0)" />
	<line x1="39.3341" y1="-3.0995" x2="-46.6285" y2="-33.0519" stroke-width="0.5" stroke="rgb(255,0,0)" />
	<line x1="39.3341" y1="-3.0995" x2="-39.1297" y2="-38.3367" stroke-width="0.5" stroke="rgb(255,0,0)" />
	<line x1="39.3341" y1="-3.0995" x2="-23.58" y2="-38.2012" stroke-width="0.5" stroke="rgb(255,0,0)" />
	<line x1="39.3341" y1="-3.0995" x2="-12.3024" y2="-38.103" stroke-width="0.5" stroke="rgb(255,0,0)" />
	<line x1="39.3341" y1="-3.0995" x2="-3.63426" y2="-38.0275" stroke-width="0.5" stroke="rgb(255,0,0)" />
	<line x1="39.3341" y1="-3.0995" x2="3.32999" y2="-37.9668" stroke-width="0.5" stroke="rgb(255,0,0)" />
	<line x1="39.3341" y1="-3.0995" x2="9.12717" y2="-37.9163" stroke-width="0.5" stroke="rgb(255,0,0)" />
	<line x1="39.3341" y1="-3.0995" x2="14.0969" y2="-37.873" stroke-width="0.5" stroke="rgb(255,0,0)" />
	<line x1="39.3341" y1="-3.0995" x2="18.4659" y2="-37.8349" stroke-width="0.5" stroke="rgb(255,0,0)" />
	<line x1="39.3341" y1="-3.0995" x2="22.3925" y2="-37.8007" stroke-width="0.5" stroke="rgb(255,0,0)" />
	<line x1="39.3341" y1="-3.0995" x2="25.9922" y2="-37.7693" stroke-width="0.5" stroke="rgb(255,0,0)" />
	<line x1="39.3341" y1="-3.0995" x2="29.3527" y2="-37.7401" stroke-width="0.5" stroke="rgb(255,0,0)" />
	<line x1="39.3341" y1="-3.0995" x2="32.5435" y2="-37.7123" stroke-width="0.5" stroke="rgb(255,0,0)" />
	<line x1="39.3341" y1="-3.0995" x2="35.6223" y2="-37.6854" stroke-width="0.5" stroke="rgb(255,0,0)" />
	<line x1="39.3341" y1="-3.0995" x2="38.6395" y2="-37.6592" stroke-width="0.5" stroke="rgb(255,0,0)" />
</g>

</svg>
