<?xml version="1.0" standalone="no" ?>
<!DOCTYPE svg PUBLIC "-//W3C//DTD SVG 1.1//EN" "http://www.w3.org/Graphics/SVG/1.1/DTD/svg11.dtd">
<svg width="511px" height="454px" viewBox="-48.698182 -38.420067 97.260038 86.760225" xmlns="http://www.w3.org/2000/svg" version="1.1" >
<g transform="scale(1 -1) translate(0 -9.920091)" >
	<polygon points="-36.0883,-7.54524 -41.3996,-10.8992 -42.3583,-21.9762 -48.6982,-38.4201 41.6416,-37.633 39.3341,-3.0995 48.5619,48.3402 6.02932,36.8127 8.11927,15.1017 -2.98722,31.1052 -0.817857,42.3686 -8.74098,46.1829 -21.7695,17.4032 -11.7715,40.0774 -25.9785,41.0849 -32.3518,47.8067 -33.7105,5.05481 -36.318,-2.90722 17.0732,4.44339 17.598,4.12694 7.06644,-9.56509 0.590474,-6.134 -9.4107,-8.09906 -19.8125,-11.9359 -24.0575,-8.87829 " fill="none" opacity="1" stroke-width="0.1" stroke="rgb(0,0,0)" />
	<line x1="-2.98722" y1="31.1052" x2="-1.75669" y2="42.8206" stroke-width="0.5" stroke="rgb(255,0,0)" />
	<line x1="-2.98722" y1="31.1052" x2="-2.75509" y2="43.3012" stroke-width="0.5" stroke="rgb(255,0,0)" />
	<line x1="-2.98722" y1="31.1052" x2="-3.83523" y2="43.8212" stroke-width="0.5" stroke="rgb(255,0,0)" />
	<line x1="-2.98722" y1="31.1052" x2="-5.02574" y2="44.3943" stroke-width="0.5" stroke="rgb(255,0,0)" />
	<line x1="-2.98722" y1="31.1052" x2="-6.36508" y2="45.0391" stroke-width="0.5" stroke="rgb(255,0,0)" />
	<line x1="-2.98722" y1="31.1052" x2="-7.90708" y2="45.7815" stroke-width="0.5" stroke="rgb(255,0,0)" />
	<line x1="-2.98722" y1="31.1052" x2="-9.14089" y2="45.2995" stroke-width="0.5" stroke="rgb(255,0,0)" />
	<line x1="-2.98722" y1="31.1052" x2="-9.82679" y2="43.7844" stroke-width="0.5" stroke="rgb(255,0,0)" />
	<line x1="-2.98722" y1="31.1052" x2="-10.4285" y2="42.4552" stroke-width="0.5" stroke="rgb(255,0,0)" />
	<line x1="-2.98722" y1="31.1052" x2="-10.9681" y2="41.2633" stroke-width="0.5" stroke="rgb(255,0,0)" />
	<line x1="-2.98722" y1="31.1052" x2="-11.4615" y2="40.1734" stroke-width="0.5" stroke="rgb(255,0,0)" />
	<line x1="-2.98722" y1="31.1052" x2="-11.9209" y2="39.1585" stroke-width="0.5" stroke="rgb(255,0,0)" />
	<line x1="-2.98722" y1="31.1052" x2="-12.3559" y2="38.1977" stroke-width="0.5" stroke="rgb(255,0,0)" />
	<line x1="-2.98722" y1="31.1052" x2="-12.7742" y2="37.2736" stroke-width="0.5" stroke="rgb(255,0,0)" />
	<line x1="-2.98722" y1="31.1052" x2="-13.1828" y2="36.3711" stroke-width="0.5" stroke="rgb(255,0,0)" />
	<line x1="-2.98722" y1="31.1052" x2="-13.5877" y2="35.4766" stroke-width="0.5" stroke="rgb(255,0,0)" />
	<line x1="-2.98722" y1="31.1052" x2="-13.995" y2="34.5769" stroke-width="0.5" stroke="rgb(255,0,0)" />
	<line x1="-2.98722" y1="31.1052" x2="-14.4108" y2="33.6584" stroke-width="0.5" stroke="rgb(255,0,0)" />
	<line x1="-2.98722" y1="31.1052" x2="-14.8417" y2="32.7066" stroke-width="0.5" stroke="rgb(255,0,0)" />
	<line x1="-2.98722" y1="31.1052" x2="-15.2953" y2="31.7045" stroke-width="0.5" stroke="rgb(255,0,0)" />
	<line x1="-2.98722" y1="31.1052" x2="-15.7808" y2="30.632" stroke-width="0.5" stroke="rgb(255,0,0)" />
	<line x1="-2.98722" y1="31.1052" x2="-16.3097" y2="29.4638" stroke-width="0.5" stroke="rgb(255,0,0)" />
	<line x1="-2.98722" y1="31.1052" x2="-16.897" y2="28.1665" stroke-width="0.5" stroke="rgb(255,0,0)" />
	<line x1="-2.98722" y1="31.1052" x2="-17.5633" y2="26.6946" stroke-width="0.5" stroke="rgb(255,0,0)" />
	<line x1="-2.98722" y1="31.1052" x2="-18.3378" y2="24.9837" stroke-width="0.5" stroke="rgb(255,0,0)" />
	<line x1="-2.98722" y1="31.1052" x2="-19.264" y2="22.9378" stroke-width="0.5" stroke="rgb(255,0,0)" />
	<line x1="-2.98722" y1="31.1052" x2="-20.4098" y2="20.4067" stroke-width="0.5" stroke="rgb(255,0,0)" />
	<line x1="-2.98722" y1="31.1052" x2="-33.6014" y2="8.48651" stroke-width="0.5" stroke="rgb(255,0,0)" />
	<line x1="-2.98722" y1="31.1052" x2="-34.1713" y2="3.64773" stroke-width="0.5" stroke="rgb(255,0,0)" />
	<line x1="-2.98722" y1="31.1052" x2="-35.4045" y2="-2.78147" stroke-width="0.5" stroke="rgb(255,0,0)" />
	<line x1="-2.98722" y1="31.1052" x2="-29.6156" y2="-1.98447" stroke-width="0.5" stroke="rgb(255,0,0)" />
	<line x1="-2.98722" y1="31.1052" x2="-24.792" y2="-1.32038" stroke-width="0.5" stroke="rgb(255,0,0)" />
	<line x1="-2.98722" y1="31.1052" x2="-20.655" y2="-0.750829" stroke-width="0.5" stroke="rgb(255,0,0)" />
	<line x1="-2.98722" y1="31.1052" x2="-17.0182" y2="-0.250125" stroke-width="0.5" stroke="rgb(255,0,0)" />
	<line x1="-2.98722" y1="31.1052" x2="-13.7508" y2="0.199705" stroke-width="0.5" stroke="rgb(255,0,0)" />
	<line x1="-2.98722" y1="31.1052" x2="-10.7578" y2="0.611775" stroke-width="0.5" stroke="rgb(255,0,0)" />
	<line x1="-2.98722" y1="31.1052" x2="-7.96664" y2="0.996042" stroke-width="0.5" stroke="rgb(255,0,0)" />
	<line x1="-2.98722" y1="31.1052" x2="-5.32026" y2="1.36038" stroke-width="0.5" stroke="rgb(255,0,0)" />
	<line x1="-2.98722" y1="31.1052" x2="-2.77129" y2="1.71131" stroke-width="0.5" stroke="rgb(255,0,0)" />
	<line x1="-2.98722" y1="31.1052" x2="-0.278664" y2="2.05448" stroke-width="0.5" stroke="rgb(255,0,0)" />
	<line x1="-2.98722" y1="31.1052" x2="2.19526" y2="2.39508" stroke-width="0.5" stroke="rgb(255,0,0)" />
	<line x1="-2.98722" y1="31.1052" x2="4.687" y2="2.73813" stroke-width="0.5" stroke="rgb(255,0,0)" />
	<line x1="-2.98722" y1="31.1052" x2="7.23413" y2="3.08881" stroke-width="0.5" stroke="rgb(255,0,0)" />
	<line x1="-2.98722" y1="31.1052" x2="9.87763" y2="3.45275" stroke-width="0.5" stroke="rgb(255,0,0)" />
	<line x1="-2.98722" y1="31.1052" x2="12.6646" y2="3.83645" stroke-width="0.5" stroke="rgb(255,0,0)" />
</g>

</svg>
